<svg id="visual" viewBox="0 0 960 540" width="960" height="540" xmlns="http://www.w3.org/2000/svg" xmlns:xlink="http://www.w3.org/1999/xlink" version="1.1"><rect x="0" y="0" width="960" height="540" fill="#01237E"></rect><path d="M0 408L26.7 416.2C53.3 424.3 106.7 440.7 160 439.7C213.3 438.7 266.7 420.3 320 413.7C373.3 407 426.7 412 480 421.8C533.3 431.7 586.7 446.3 640 449C693.3 451.7 746.7 442.3 800 442C853.3 441.7 906.7 450.3 933.3 454.7L960 459L960 541L933.3 541C906.7 541 853.3 541 800 541C746.7 541 693.3 541 640 541C586.7 541 533.3 541 480 541C426.7 541 373.3 541 320 541C266.7 541 213.3 541 160 541C106.7 541 53.3 541 26.7 541L0 541Z" fill="#5f65a5"></path><path d="M0 461L26.7 467.5C53.3 474 106.7 487 160 485.7C213.3 484.3 266.7 468.7 320 463.2C373.3 457.7 426.7 462.3 480 463.7C533.3 465 586.7 463 640 459.3C693.3 455.7 746.7 450.3 800 455.5C853.3 460.7 906.7 476.3 933.3 484.2L960 492L960 541L933.3 541C906.7 541 853.3 541 800 541C746.7 541 693.3 541 640 541C586.7 541 533.3 541 480 541C426.7 541 373.3 541 320 541C266.7 541 213.3 541 160 541C106.7 541 53.3 541 26.7 541L0 541Z" fill="#8d83b8"></path><path d="M0 477L26.7 483.2C53.3 489.3 106.7 501.7 160 504.8C213.3 508 266.7 502 320 495C373.3 488 426.7 480 480 478.5C533.3 477 586.7 482 640 489.7C693.3 497.3 746.7 507.7 800 508.7C853.3 509.7 906.7 501.3 933.3 497.2L960 493L960 541L933.3 541C906.7 541 853.3 541 800 541C746.7 541 693.3 541 640 541C586.7 541 533.3 541 480 541C426.7 541 373.3 541 320 541C266.7 541 213.3 541 160 541C106.7 541 53.3 541 26.7 541L0 541Z" fill="#b4a3cb"></path></svg>