<?xml version="1.0" encoding="UTF-8"?>
<svg id="Camada_1" data-name="Camada 1" xmlns="http://www.w3.org/2000/svg" viewBox="0 0 1080 1080">
  <defs>
    <style>
      .cls-1 {
        stroke-width: 0px;
      }
    </style>
  </defs>
  <g>
    <path class="cls-1" d="m670.72,510.94c-5.89-3.66-13.02-5.5-21.37-5.5s-15.48,1.83-21.37,5.5c-5.89,3.66-10.39,8.54-13.49,14.64-3.1,6.1-4.65,12.76-4.65,19.98s1.55,13.79,4.65,19.83c3.1,6.05,7.6,10.89,13.49,14.53,5.89,3.64,13.02,5.46,21.37,5.46s15.47-1.82,21.37-5.46c5.89-3.64,10.39-8.48,13.49-14.53,3.1-6.05,4.65-12.66,4.65-19.83s-1.55-13.89-4.65-19.98c-3.1-6.1-7.6-10.98-13.49-14.64Zm-6.57,52.04c-3.46,4.49-8.39,6.73-14.8,6.73s-11.28-2.24-14.76-6.73c-3.48-4.48-5.23-10.29-5.23-17.41s1.74-13.1,5.23-17.64c3.48-4.53,8.4-6.8,14.76-6.8s11.34,2.27,14.8,6.8c3.46,4.54,5.19,10.42,5.19,17.64s-1.73,12.93-5.19,17.41Z"/>
    <path class="cls-1" d="m453.38,526.66l9.98-12.72v-35.76c0-1.07-.87-1.94-1.94-1.94h-15.8c-1.07,0-1.94.87-1.94,1.94v103.73c0,1.07.87,1.94,1.94,1.94h15.8c1.07,0,1.94-.87,1.94-1.94v-41l-9.98-14.26Z"/>
    <path class="cls-1" d="m504.13,476.98l-39.23,49.99,39.24,56.05c.36.52.96.83,1.59.83h18.31c1.57,0,2.49-1.77,1.58-3.06l-37.97-53.82,37.64-47.59c1.01-1.27.1-3.14-1.52-3.14h-18.11c-.6,0-1.16.27-1.53.74Z"/>
    <path class="cls-1" d="m572.75,505.75c-5.38,0-10.1,1-14.14,3-2.35,1.16-4.5,2.41-6.47,3.73l-.2-3.66c-.06-1.03-.91-1.83-1.94-1.83h-14.06c-1.07,0-1.94.87-1.94,1.94v72.99c0,1.07.87,1.94,1.94,1.94h15.19c1.07,0,1.94-.87,1.94-1.94v-53.71c1.18-1.35,2.43-2.55,3.77-3.58,2.77-2.13,6.33-3.19,10.68-3.19,5.38,0,9.26,1.72,11.64,5.15,2.38,3.43,3.57,8.74,3.57,15.91v39.41c0,1.07.87,1.94,1.94,1.94h15.19c1.07,0,1.94-.87,1.94-1.94v-40.95c0-10.4-2.38-18.87-7.15-25.4-4.77-6.53-12.07-9.8-21.9-9.8Z"/>
    <path class="cls-1" d="m768.79,560.64l-13.91-50.69c-.23-.84-1-1.43-1.87-1.43h-13.03c-.87,0-1.64.58-1.87,1.42l-14.06,50.69-12.86-52.18c-.21-.87-.99-1.47-1.88-1.47h-14.5c-1.29,0-2.22,1.24-1.86,2.48l21.31,72.99c.24.83,1,1.4,1.86,1.4h13.11c.85,0,1.59-.55,1.85-1.35l15.41-48.76,15.4,48.76c.25.81,1,1.35,1.85,1.35h13.11c.86,0,1.62-.57,1.86-1.4l21.31-72.99c.36-1.24-.57-2.48-1.86-2.48h-14.5c-.89,0-1.67.61-1.88,1.47l-13.01,52.18Z"/>
    <path class="cls-1" d="m869.37,525.09c3.18-1.81,5.74-4.11,7.65-6.94,2.84-4.22,4.26-9.47,4.26-15.76,0-8.44-2.52-14.87-7.56-19.29-5.04-4.42-12.75-6.64-23.13-6.64h-38.56c-1.07,0-1.94.87-1.94,1.94v103.51c0,1.07.87,1.94,1.94,1.94h42.86c10.84,0,19.38-2.67,25.62-8.02,6.24-5.34,9.36-12.85,9.36-22.51,0-8.08-2.12-14.57-6.37-19.48-3.35-3.87-8.07-6.78-14.13-8.74Zm-39.64-31.15h17.95c4.76,0,8.32.96,10.7,2.88,2.38,1.92,3.57,5.1,3.57,9.55s-1.19,7.42-3.57,9.36c-2.38,1.94-5.94,2.91-10.7,2.91h-17.95v-24.7Zm35.09,69.11c-3.2,2.2-7.48,3.3-12.85,3.3h-22.25v-30.22h22.25c5.01,0,9.2,1.05,12.58,3.14,3.37,2.1,5.06,6.06,5.06,11.89s-1.6,9.69-4.8,11.89Z"/>
    <path class="cls-1" d="m898.72,476.46v107.39h19.64v-105.45c0-1.07-.87-1.94-1.94-1.94h-17.7Z"/>
  </g>
  <g>
    <rect class="cls-1" x="160.06" y="435.98" width="84.75" height="39.55" rx="4.87" ry="4.87"/>
    <rect class="cls-1" x="202.44" y="490.95" width="161.3" height="39.55" rx="4.87" ry="4.87"/>
    <rect class="cls-1" x="202.44" y="545.83" width="161.3" height="39.55" rx="4.87" ry="4.87"/>
  </g>
</svg>