<!DOCTYPE svg PUBLIC "-//W3C//DTD SVG 1.1//EN" "http://www.w3.org/Graphics/SVG/1.1/DTD/svg11.dtd">

<!-- Uploaded to: SVG Repo, www.svgrepo.com, Transformed by: SVG Repo Mixer Tools -->
<svg width="64px" height="64px" viewBox="-2.4 -2.4 28.80 28.80" fill="none" xmlns="http://www.w3.org/2000/svg" stroke="#751a7e" stroke-width="1.296">

<g id="SVGRepo_bgCarrier" stroke-width="0"/>

<g id="SVGRepo_tracerCarrier" stroke-linecap="round" stroke-linejoin="round"/>

<g id="SVGRepo_iconCarrier"> <path d="M5.05949 4.45732C5.17699 4.18008 5.44891 4 5.75002 4H18.25C18.6642 4 19 4.33579 19 4.75C19 5.16421 18.6642 5.5 18.25 5.5H7.51952L12.8799 11.039C13.1491 11.3173 13.1623 11.7547 12.9104 12.0487L7.38068 18.5H18.25C18.6642 18.5 19 18.8358 19 19.25C19 19.6642 18.6642 20 18.25 20H5.75002C5.45712 20 5.19102 19.8295 5.06863 19.5634C4.94625 19.2973 4.98996 18.9843 5.18058 18.7619L11.3269 11.5912L5.21107 5.27157C5.00167 5.05519 4.94198 4.73455 5.05949 4.45732Z" fill="#751a7e"/> </g>

</svg>
