<svg width="186" height="243" viewBox="0 0 186 243" fill="none" xmlns="http://www.w3.org/2000/svg">
<path d="M170.14 130.371H15.5996V242.751H170.14V130.371Z" fill="#5F65A5"/>
<path d="M124.08 88.23C124.08 88.23 124.08 88.23 124.1 88.23C140.12 75.31 147 53.11 139.56 32.67C130.14 6.88999 101.62 -6.39003 75.86 3.02997C50.1 12.45 36.8 40.97 46.22 66.73C49.46 75.51 54.86 82.81 61.6 88.23H13.04L0 116.33H185.72L172.68 88.23H124.08ZM77.1 27.11C77.38 26.97 77.5999 26.75 77.9399 26.47L75.7 20.29C76.2 20.07 76.54 19.87 76.9 19.73C79.36 18.81 81.88 17.91 84.34 16.99C85.14 16.71 85.68 16.99 85.96 17.83C86.52 19.17 87.0199 20.49 87.4399 21.83C87.6599 22.53 88.08 22.81 88.84 22.75C91.72 22.39 94.52 22.61 97.2 23.67C99.94 24.73 102.04 26.63 103.94 28.79C104.5 29.35 104.36 29.77 103.8 30.27C101.7 32.09 99.58 33.93 97.48 35.75C96.84 36.31 96.42 36.25 95.86 35.61C94.18 33.85 92.2799 32.45 89.8199 32.03C86.5199 31.53 83.08 33.37 82.1 36.25C81.04 39.35 82.74 42.23 85.76 42.43C88.42 42.65 91.1 42.71 93.76 42.71C97.2 42.71 100.72 42.57 104.08 43.27C110.34 44.61 113.84 48.53 115.32 54.51C115.88 56.83 115.96 59.15 115.4 61.39C114.76 64.05 113.5 66.59 111.46 68.49C110.06 69.75 108.58 70.8701 107.04 71.9301C106.12 72.6301 105.98 72.63 106.4 73.83L108.02 78.1899C108.16 78.6899 108.24 79.1099 107.52 79.3099C104.64 80.3699 101.76 81.41 98.7999 82.41C98.7999 82.49 98.66 82.41 98.38 82.41L96.14 76.29C91.58 77.13 87.22 76.71 83.28 74.25C80.68 72.71 78.64 70.53 76.96 67.79C80.12 65.75 83.22 63.71 86.38 61.67C86.74 62.17 87.02 62.59 87.36 63.01C89.68 66.25 92.76 67.37 96.7 66.53C98.6 66.17 100.22 65.33 101.68 64.15C103.86 62.33 104.2 58.89 102.52 56.77C101.82 55.85 100.9 55.23 99.72 55.15C97.9 54.93 96.06 54.79 94.24 54.79C91.36 54.79 88.4 54.93 85.54 54.87C82.38 54.79 79.3599 54.31 76.6799 52.63C72.4599 49.97 70.42 46.03 70 41.19C69.44 35.07 72.04 30.45 77.1 27.15V27.11Z" fill="#5F65A5"/>
</svg>
