<svg width="317" height="180" viewBox="0 0 317 180" fill="none" xmlns="http://www.w3.org/2000/svg">
<path d="M297.121 80.9003C301.261 80.9003 305.261 81.6802 308.921 83.0802C310.041 79.0802 310.681 74.9402 310.681 70.5802C310.681 69.6602 310.541 68.7602 310.541 67.7802C297.681 58.9202 282.241 53.6602 265.441 53.6602C248.641 53.6602 233.201 58.9202 220.421 67.7802C220.341 68.7602 220.281 69.6802 220.281 70.5802C220.281 74.1602 220.701 77.6003 221.481 80.9003H297.141H297.121Z" fill="#5F65A5"/>
<path d="M297.12 94.9609H116.1C106.82 115.541 86.1 129.861 62.16 129.861C38.22 129.861 19.32 116.721 9.48004 97.621C3.80004 101.001 0 107.181 0 114.201V160.481C0 171.081 8.63999 179.661 19.24 179.661H297.12C307.72 179.661 316.3 171.101 316.3 160.481V114.201C316.3 103.601 307.74 94.9609 297.12 94.9609ZM181.64 147.141H167.94V160.761H148.34V147.141H134.72V127.541H148.34V113.921H167.94V127.541H181.64V147.141Z" fill="#5F65A5"/>
<path d="M64.9614 45.2C77.4414 45.2 87.5613 35.08 87.5613 22.6C87.5613 10.12 77.4414 0 64.9614 0C52.4814 0 42.3613 10.12 42.3613 22.6C42.3613 35.08 52.4814 45.2 64.9614 45.2Z" fill="#5F65A5"/>
<path d="M262.641 45.2C275.121 45.2 285.241 35.08 285.241 22.6C285.241 10.12 275.121 0 262.641 0C250.161 0 240.041 10.12 240.041 22.6C240.041 35.08 250.161 45.2 262.641 45.2Z" fill="#5F65A5"/>
<path d="M197.681 82.4594L180.74 47.3594H135.561L152.5 82.4594H197.681Z" fill="#5F65A5"/>
<path d="M62.1409 115.8C87.1009 115.8 107.321 95.5798 107.321 70.6198C107.321 69.6598 107.241 68.7397 107.181 67.7997C94.401 58.9197 78.8809 53.6797 62.1409 53.6797C45.4009 53.6797 29.881 58.9197 17.101 67.7997C17.041 68.7397 16.9609 69.6598 16.9609 70.6198C16.9609 95.5798 37.1809 115.8 62.1409 115.8Z" fill="#5F65A5"/>
</svg>
