<svg width="217" height="204" viewBox="0 0 217 204" fill="none" xmlns="http://www.w3.org/2000/svg">
<path d="M202.34 66.3022H172.76L152.74 86.3823C151.82 87.2223 150.5 87.5822 149.3 87.2222C148.1 86.9422 147.12 85.9622 146.84 84.7022L135.74 40.2422L118.46 92.0023C117.48 94.8823 112.78 94.8823 111.78 92.0023L100.9 59.2621L83.26 106.182C82.76 107.522 81.44 108.422 80.02 108.422H79.88C78.34 108.362 77.08 107.362 76.64 105.962L58.4399 45.3422L48.12 71.0422C47.56 72.3822 46.3 73.2822 44.88 73.2822H13.28V69.8422L0 133.402H188.24L202.28 66.2422L202.34 66.3022Z" fill="#5F65A5"/>
<path d="M55.6797 33.42C56.2397 32.02 57.5796 30.96 59.1196 31.18C60.5996 31.26 61.8597 32.24 62.2797 33.7L80.3997 93.96L97.8196 47.54C98.3196 46.14 99.8596 45.36 101.2 45.22C102.68 45.3 103.94 46.2 104.44 47.6L115.18 79.78L132.88 26.54C133.38 25.06 134.92 24.22 136.32 24.16C137.94 24.24 139.28 25.36 139.62 26.82L152.2 76.98L168.84 60.34C169.54 59.7 170.38 59.28 171.36 59.28H203.68V59.84L216.18 0H27.9396L14.0996 66.3H42.5396L55.6797 33.42Z" fill="#5F65A5"/>
<path d="M125.679 150.98H62.459V165.02H125.679V150.98Z" fill="#5F65A5"/>
<path d="M174.859 182.582H13.2988V203.662H174.859V182.582Z" fill="#5F65A5"/>
<path d="M13.3184 66.3008V69.8809L14.0983 66.3008H13.3184Z" fill="#5F65A5"/>
<path d="M203.68 66.2998V59.8398L202.34 66.2998H203.68Z" fill="#5F65A5"/>
</svg>
