<svg width="211" height="193" viewBox="0 0 211 193" fill="none" xmlns="http://www.w3.org/2000/svg">
<path d="M195.43 0.0200195H89.93C81.71 0.0200195 75.03 6.70004 75.03 14.92V99.5001C62.67 92.2001 47.21 90.22 32.67 95.56C6.88999 104.98 -6.39003 133.5 3.02997 159.26C12.45 184.96 40.97 198.24 66.73 188.9C70.17 187.64 73.41 186.02 76.35 184.12C78.67 189.32 83.87 192.9 89.91 192.9H195.41C203.63 192.9 210.31 186.3 210.31 178.08V14.9C210.31 6.68002 203.63 0 195.41 0L195.43 0.0200195ZM72.23 153.92C71.59 156.58 70.41 159.12 68.29 161.02C66.89 162.28 65.4099 163.4 63.8699 164.46C62.9499 165.16 62.81 165.16 63.23 166.36L64.85 170.64C64.99 171.2 65.07 171.62 64.35 171.84C61.47 172.9 58.59 173.94 55.65 174.94C55.65 175.02 55.51 174.94 55.23 174.86L53.05 168.82C48.41 169.66 44.05 169.24 40.13 166.78C37.53 165.16 35.49 163.06 33.81 160.32C36.97 158.28 40.07 156.24 43.23 154.2C43.59 154.7 43.87 155.12 44.21 155.54C46.53 158.78 49.61 159.9 53.55 159.06C55.45 158.64 57.07 157.86 58.53 156.68C60.71 154.86 61.0499 151.42 59.3699 149.3C58.6699 148.38 57.75 147.76 56.57 147.62C54.75 147.48 52.91 147.34 51.09 147.34C48.21 147.26 45.25 147.48 42.39 147.42C39.23 147.34 36.21 146.86 33.53 145.1C29.31 142.5 27.27 138.5 26.85 133.72C26.35 127.6 28.89 122.98 33.95 119.68C34.23 119.46 34.45 119.32 34.79 119.04L32.55 112.86C33.05 112.58 33.39 112.44 33.75 112.3C36.21 111.38 38.73 110.48 41.19 109.56C41.99 109.28 42.53 109.56 42.81 110.4C43.37 111.66 43.87 113 44.29 114.4C44.51 115.1 44.93 115.38 45.69 115.24C48.57 114.96 51.37 115.16 54.05 116.22C56.79 117.28 58.89 119.18 60.79 121.28C61.35 121.92 61.21 122.34 60.65 122.82C58.55 124.64 56.43 126.48 54.33 128.3C53.69 128.8 53.27 128.8 52.71 128.16C51.03 126.4 49.13 125 46.67 124.58C43.37 124.08 39.93 125.92 38.95 128.8C37.89 131.9 39.59 134.7 42.61 134.98C45.27 135.2 47.9499 135.26 50.6099 135.26C54.0499 135.26 57.57 135.12 60.93 135.82C67.19 137.16 70.77 141.08 72.17 147.06C72.73 149.3 72.8099 151.7 72.2499 153.94L72.23 153.92ZM137.63 168.32C137.63 176.04 131.37 182.36 123.59 182.36H100.33C94.71 182.36 89.7899 178.98 87.6099 174.22C86.7699 172.4 86.27 170.42 86.27 168.32V144.22C86.27 137.26 91.33 131.5 97.93 130.38C98.71 130.24 99.47 130.16 100.31 130.16H123.57C131.37 130.16 137.61 136.42 137.61 144.2V168.3L137.63 168.32ZM137.63 108.62C137.63 116.42 131.37 122.66 123.59 122.66H100.33C98.43 122.66 96.53 122.24 94.85 121.54C89.87 119.44 86.29 114.44 86.29 108.62V84.5201C86.29 76.8001 92.61 70.48 100.33 70.48H123.59C131.39 70.48 137.63 76.8001 137.63 84.5201V108.62ZM199.09 168.32C199.09 176.04 192.77 182.36 185.05 182.36H161.79C153.99 182.36 147.75 176.04 147.75 168.32V144.22C147.75 136.42 154.01 130.18 161.79 130.18H185.05C192.77 130.18 199.09 136.44 199.09 144.22V168.32ZM199.09 108.62C199.09 116.42 192.77 122.66 185.05 122.66H161.79C153.99 122.66 147.75 116.4 147.75 108.62V84.5201C147.75 76.8001 154.01 70.48 161.79 70.48H185.05C192.77 70.48 199.09 76.8001 199.09 84.5201V108.62ZM199.09 43.36C199.09 51.08 192.77 57.4 185.05 57.4H100.33C92.61 57.4 86.29 51.08 86.29 43.36V24.68C86.29 16.88 92.61 10.64 100.33 10.64H185.05C192.77 10.64 199.09 16.9 199.09 24.68V43.36Z" fill="#5F65A5"/>
<path d="M115.99 83.7422H107.99V92.4622H99.4102V100.682H107.99V109.382H115.99V100.682H124.55V92.4622H115.99V83.7422Z" fill="#5F65A5"/>
<path d="M186.031 92.4609H160.811V100.681H186.031V92.4609Z" fill="#5F65A5"/>
<path d="M178.63 142.32H168.17V150.54H178.63V142.32Z" fill="#5F65A5"/>
<path d="M178.63 162H168.17V170.22H178.63V162Z" fill="#5F65A5"/>
<path d="M118.029 144.301L111.989 150.481L105.949 144.301L100.189 150.061L106.289 156.241L100.189 162.421L105.949 168.181L111.989 162.061L118.029 168.181L123.709 162.421L117.669 156.241L123.709 150.061L118.029 144.301Z" fill="#5F65A5"/>
</svg>
