<svg width="285" height="218" viewBox="0 0 285 218" fill="none" xmlns="http://www.w3.org/2000/svg">
<path d="M259.48 35.54H170.62C158.96 23.88 149.26 14.18 135.08 0H0V191.9C0 205.88 11.38 217.18 25.36 217.18H259.48C273.52 217.18 284.84 205.88 284.84 191.9V60.8199C284.84 46.9199 273.54 35.54 259.48 35.54ZM132.2 7.01996L160.72 35.54H133.6C123.98 25.92 115.68 17.62 105.16 7.01996H132.2ZM95.18 7.01996L123.7 35.54H103.4L76.92 9.06V7.01996H95.18ZM246.06 192.66H36.04C30.84 192.66 26.62 188.44 26.62 183.24C26.62 178.04 30.84 173.9 36.04 173.9H246.06C251.26 173.9 255.48 178.12 255.48 183.24C255.48 188.36 251.26 192.66 246.06 192.66Z" fill="#5F65A5"/>
</svg>
