<svg width="314" height="271" viewBox="0 0 314 271" fill="none" xmlns="http://www.w3.org/2000/svg">
<path d="M50.2595 206.743H194.4C205 206.743 213.64 198.183 213.64 187.503V92.5432C213.64 81.9432 205 73.3031 194.4 73.3031H155.199V44.0031C155.199 35.0031 147.959 27.7031 138.979 27.7031H105.68C96.6796 27.7031 89.4595 35.0031 89.4595 44.0031V73.3031H50.2595C39.6595 73.3031 31.0195 81.9432 31.0195 92.5432V187.503C31.0195 198.183 39.6595 206.743 50.2595 206.743ZM129.359 184.543C129.359 188.403 126.199 191.563 122.339 191.563C118.479 191.563 115.32 188.403 115.32 184.543V97.9432C115.32 94.0032 118.479 90.9232 122.339 90.9232C126.199 90.9232 129.359 94.0232 129.359 97.9432V184.543ZM163.42 97.9432C163.42 94.0032 166.58 90.9232 170.44 90.9232C174.3 90.9232 177.459 94.0232 177.459 97.9432V184.543C177.459 188.403 174.3 191.563 170.44 191.563C166.58 191.563 163.42 188.403 163.42 184.543V97.9432ZM96.4795 44.0031C96.4795 38.8831 100.62 34.7231 105.68 34.7231H138.979C144.039 34.7231 148.18 38.8631 148.18 44.0031V73.3031H96.4795V44.0031ZM67.1795 97.9432C67.1795 94.0032 70.3395 90.9232 74.1995 90.9232C78.0595 90.9232 81.2195 94.0232 81.2195 97.9432V184.543C81.2195 188.403 78.0595 191.563 74.1995 191.563C70.3395 191.563 67.1795 188.403 67.1795 184.543V97.9432Z" fill="#5F65A5"/>
<path d="M306.52 0.0200195H288.16C275.52 0.0200195 264.8 9.48002 263.24 22.02L237.36 228.96H7.02002C3.14002 228.96 0 232.1 0 235.98C0 239.86 3.14002 243 7.02002 243H45.68C43.84 245.8 42.7 249.12 42.7 252.72C42.7 262.66 50.76 270.72 60.7 270.72C70.64 270.72 78.7 262.66 78.7 252.72C78.7 249.1 77.58 245.8 75.72 243H175.2C173.36 245.8 172.22 249.12 172.22 252.72C172.22 262.66 180.28 270.72 190.22 270.72C200.16 270.72 208.22 262.66 208.22 252.72C208.22 249.1 207.1 245.8 205.24 243H249.72L277.12 23.74C277.82 18.22 282.54 14.04 288.1 14.04H306.46C310.34 14.04 313.48 10.9 313.48 7.02002C313.48 3.14002 310.34 0 306.46 0L306.52 0.0200195Z" fill="#5F65A5"/>
</svg>
