<?xml version="1.0" encoding="UTF-8"?>
<svg id="Camada_1" data-name="Camada 1" xmlns="http://www.w3.org/2000/svg" xmlns:xlink="http://www.w3.org/1999/xlink" viewBox="0 0 1080 1080">
  <defs>
    <style>
      .cls-1 {
        clip-path: url(#clippath-2);
      }

      .cls-2 {
        fill: #431a7e;
      }

      .cls-2, .cls-3, .cls-4 {
        stroke-width: 0px;
      }

      .cls-4 {
        fill: none;
      }

      .cls-5 {
        clip-path: url(#clippath-1);
      }

      .cls-6 {
        clip-path: url(#clippath-4);
      }

      .cls-7 {
        clip-path: url(#clippath);
      }

      .cls-8 {
        clip-path: url(#clippath-3);
      }
    </style>
    <clipPath id="clippath">
      <rect class="cls-4" x="832.67" y="-200" width="195.11" height="180"/>
    </clipPath>
    <clipPath id="clippath-1">
      <rect class="cls-4" x="637.56" y="-200" width="195.11" height="180"/>
    </clipPath>
    <clipPath id="clippath-2">
      <rect class="cls-4" x="442.44" y="-200" width="195.11" height="180"/>
    </clipPath>
    <clipPath id="clippath-3">
      <rect class="cls-4" x="247.33" y="-200" width="195.11" height="180"/>
    </clipPath>
    <clipPath id="clippath-4">
      <rect class="cls-4" x="52.22" y="-200" width="195.11" height="180"/>
    </clipPath>
  </defs>
  <g>
    <g class="cls-7">
      <path class="cls-2" d="m903.15-43.29c2.28,3.58,4.81,6.98,7.57,10.16.97,1.17,3.82,4.1,5.41,5.72h0c2.36,2.33,5.63,5.4,9.71,8.36,5.93,4.3,12.39,7.51,19.19,9.53,2.95.88,5.95,1.53,9,1.97l2.79,4.3s.04.06.06.09c.01.02.02.04.04.07.07.12.12.24.17.36.02.05.04.11.06.16,0,.02.01.04.02.06.01.03.02.07.03.1,0,0,0,0,0,0,.01.05.02.09.03.13.04.16.05.31.06.47,0,.04,0,.08,0,.12,0,.04,0,.08,0,.11-.01.28-.06.56-.16.83-.01.03-.02.06-.03.09l-.04.09c-.02.05-.05.11-.08.16-.02.03-.03.06-.05.1-.04.07-.08.14-.12.2-.01.02-.03.05-.05.07l-1.42,1.07h0s-1.74,1.32-1.74,1.32l-1.25.95c-5.65-3.46-11.4-6.52-17.21-9.18-1.13-.51-6.71-2.95-7.56-3.31-4.01-1.78-7.06-3.41-10.54-6.73-8.52-8.12-11.67-18.99-12.7-22.56-.46-1.58-.85-3.19-1.17-4.81Z"/>
    </g>
    <g class="cls-5">
      <path class="cls-2" d="m708.04-43.29c2.28,3.58,4.81,6.98,7.57,10.16.97,1.17,3.82,4.1,5.41,5.72h0c2.36,2.33,5.63,5.4,9.71,8.36,5.93,4.3,12.39,7.51,19.19,9.53,2.95.88,5.95,1.53,9,1.97l2.79,4.3s.04.06.06.09c.01.02.02.04.04.07.07.12.12.24.17.36.02.05.04.11.06.16,0,.02.01.04.02.06.01.03.02.07.03.1,0,0,0,0,0,0,.01.05.02.09.03.13.04.16.05.31.06.47,0,.04,0,.08,0,.12,0,.04,0,.08,0,.11-.01.28-.06.56-.16.83-.01.03-.02.06-.03.09l-.04.09c-.02.05-.05.11-.08.16-.02.03-.03.06-.05.1-.04.07-.08.14-.12.2-.01.02-.03.05-.05.07l-1.42,1.07h0s-1.74,1.32-1.74,1.32l-1.25.95c-5.65-3.46-11.4-6.52-17.21-9.18-1.13-.51-6.71-2.95-7.56-3.31-4.01-1.78-7.06-3.41-10.54-6.73-8.52-8.12-11.67-18.99-12.7-22.56-.46-1.58-.85-3.19-1.17-4.81Z"/>
    </g>
    <g class="cls-1">
      <path class="cls-2" d="m512.93-43.29c2.28,3.58,4.81,6.98,7.57,10.16.97,1.17,3.82,4.1,5.41,5.72h0c2.36,2.33,5.63,5.4,9.71,8.36,5.93,4.3,12.39,7.51,19.19,9.53,2.95.88,5.95,1.53,9,1.97l2.79,4.3s.04.06.06.09c.01.02.02.04.04.07.07.12.12.24.17.36.02.05.04.11.06.16,0,.02.01.04.02.06.01.03.02.07.03.1,0,0,0,0,0,0,.01.05.02.09.03.13.04.16.05.31.06.47,0,.04,0,.08,0,.12,0,.04,0,.08,0,.11-.01.28-.06.56-.16.83-.01.03-.02.06-.03.09l-.04.09c-.02.05-.05.11-.08.16-.02.03-.03.06-.05.1-.04.07-.08.14-.12.2-.01.02-.03.05-.05.07l-1.42,1.07h0s-1.74,1.32-1.74,1.32l-1.25.95c-5.65-3.46-11.4-6.52-17.21-9.18-1.13-.51-6.71-2.95-7.56-3.31-4.01-1.78-7.06-3.41-10.54-6.73-8.52-8.12-11.67-18.99-12.7-22.56-.46-1.58-.85-3.19-1.17-4.81Z"/>
    </g>
    <g class="cls-8">
      <path class="cls-2" d="m317.82-43.29c2.28,3.58,4.81,6.98,7.57,10.16.97,1.17,3.82,4.1,5.41,5.72h0c2.36,2.33,5.63,5.4,9.71,8.36,5.93,4.3,12.39,7.51,19.19,9.53,2.95.88,5.95,1.53,9,1.97l2.79,4.3s.04.06.06.09c.01.02.02.04.04.07.07.12.12.24.17.36.02.05.04.11.06.16,0,.02.01.04.02.06.01.03.02.07.03.1,0,0,0,0,0,0,.01.05.02.09.03.13.04.16.05.31.06.47,0,.04,0,.08,0,.12,0,.04,0,.08,0,.11-.01.28-.06.56-.16.83-.01.03-.02.06-.03.09l-.04.09c-.02.05-.05.11-.08.16-.02.03-.03.06-.05.1-.04.07-.08.14-.12.2-.01.02-.03.05-.05.07l-1.42,1.07h0s-1.74,1.32-1.74,1.32l-1.25.95c-5.65-3.46-11.4-6.52-17.21-9.18-1.13-.51-6.71-2.95-7.56-3.31-4.01-1.78-7.06-3.41-10.54-6.73-8.52-8.12-11.67-18.99-12.7-22.56-.46-1.58-.85-3.19-1.17-4.81Z"/>
    </g>
    <g class="cls-6">
      <path class="cls-2" d="m122.71-43.29c2.28,3.58,4.81,6.98,7.57,10.16.97,1.17,3.82,4.1,5.41,5.72h0c2.36,2.33,5.63,5.4,9.71,8.36,5.93,4.3,12.39,7.51,19.19,9.53,2.95.88,5.95,1.53,9,1.97l2.79,4.3s.04.06.06.09c.01.02.02.04.04.07.07.12.12.24.17.36.02.05.04.11.06.16,0,.02.01.04.02.06.01.03.02.07.03.1,0,0,0,0,0,0,.01.05.02.09.03.13.04.16.05.31.06.47,0,.04,0,.08,0,.12,0,.04,0,.08,0,.11-.01.28-.06.56-.16.83-.01.03-.02.06-.03.09l-.04.09c-.02.05-.05.11-.08.16-.02.03-.03.06-.05.1-.04.07-.08.14-.12.2-.01.02-.03.05-.05.07l-1.42,1.07h0s-1.74,1.32-1.74,1.32l-1.25.95c-5.65-3.46-11.4-6.52-17.21-9.18-1.13-.51-6.71-2.95-7.56-3.31-4.01-1.78-7.06-3.41-10.54-6.73-8.52-8.12-11.67-18.99-12.7-22.56-.46-1.58-.85-3.19-1.17-4.81Z"/>
    </g>
  </g>
  <g>
    <path class="cls-3" d="m586.95,547.74c-1.37-1.37-3.59-1.37-4.97,0-1.37,1.37-1.37,3.59,0,4.97l17.72,17.72c.69.69,1.58,1.03,2.48,1.03s1.8-.34,2.48-1.03c1.37-1.37,1.37-3.59,0-4.97l-17.72-17.72Z"/>
    <rect class="cls-3" x="474.3" y="527.18" width="18.66" height="54.62"/>
    <rect class="cls-3" x="504.62" y="510.5" width="18.66" height="70.75"/>
    <path class="cls-3" d="m534.93,545.54v35.72h18.66v-25.67c-7.36-1.13-13.87-4.78-18.66-10.05Z"/>
    <circle class="cls-3" cx="558.46" cy="524.21" r="26.01"/>
  </g>
</svg>