<?xml version="1.0" encoding="UTF-8"?>
<svg id="Camada_1" data-name="Camada 1" xmlns="http://www.w3.org/2000/svg" viewBox="0 0 1080 1080">
  <defs>
    <style>
      .cls-1 {
        fill: #545454;
      }

      .cls-1, .cls-2, .cls-3 {
        stroke-width: 0px;
      }

      .cls-2 {
        fill: #000000;
      }

      .cls-3 {
        fill: #8c8b8b;
      }
    </style>
  </defs>
  <path class="cls-2" d="m675.92,565.03c-18.54-.16-36.97,1.03-55.17,3.56-3.35-5.02-9.07-8.32-15.56-8.32-8.89,0-16.33,6.2-18.23,14.51h0c-14.14,3.07-33.16,7.77-53.66,15.64-29.84,11.47-56.92,27.46-80.48,47.53-10.21,8.69-19.75,18.13-28.59,28.24h-22.37c-.15,0-.31,0-.46,0-.11,0-.22-.01-.34-.02-.58-.03-1.17-.11-1.73-.22-.24-.05-.48-.11-.72-.17-.09-.03-.18-.05-.27-.08-.15-.04-.3-.09-.44-.13-.02,0-.02,0-.04-.01-.19-.07-.37-.13-.56-.21-.66-.24-1.27-.56-1.87-.91-.14-.08-.29-.17-.43-.27-.13-.09-.28-.18-.4-.28-1.01-.71-1.91-1.57-2.66-2.55-.08-.11-.16-.21-.24-.32l-.24-.35c-.14-.21-.28-.43-.41-.66-.08-.13-.15-.27-.23-.41-.16-.3-.32-.61-.45-.93-.05-.11-.09-.22-.13-.33l-.54-7.72h0s-.67-9.52-.67-9.52l-.48-6.84c26.08-12.43,50.98-26.19,74.51-41.16,3.29,2.86,7.58,4.6,12.28,4.6,10.33,0,18.7-8.38,18.7-18.71,0-1.98-.31-3.89-.88-5.69,16.04-10.43,29.25-17.72,49.68-22.57,49.98-11.87,97.21,2.46,112.74,7.17,6.89,2.09,13.68,4.47,20.37,7.14Z"/>
  <path class="cls-2" d="m695.41,577.93l-.02.32-3.78,54.02h0s-.62,8.8-.62,8.8l-.66,9.51h0s-.54,7.75-.54,7.75h0c-.03.09-.07.17-.1.25-.06.14-.13.29-.2.42-.15.34-.32.66-.51.98,0,0,0,.01-.01.02-.07.11-.13.22-.2.32-.34.55-.72,1.07-1.15,1.55-.2.23-.41.45-.63.67-.21.21-.42.41-.66.6-.12.12-.27.24-.41.34-.2.16-.42.33-.63.48-.22.15-.46.3-.69.44-.98.58-2.04,1.05-3.18,1.35-.24.06-.48.12-.73.17-.56.11-1.14.19-1.73.22-.12,0-.22.01-.35.02-.15,0-.3,0-.45,0h-237.4c6.33-6.66,13-12.98,20-18.95,46.61-39.72,95.83-53.36,127.55-60.27,3,6.32,9.44,10.69,16.9,10.69,9.82,0,17.87-7.57,18.65-17.19,23.56-3.19,47.51-4.04,71.57-2.56Z"/>
  <path class="cls-1" d="m697.82,543.52l-.24,3.37-.97,13.87c-12.15-5.78-24.7-10.65-37.53-14.55-16.3-4.95-65.91-20-119.09-7.37-22.57,5.36-37.24,13.59-54.19,24.66-2.99-2.03-6.61-3.22-10.49-3.22-10.33,0-18.7,8.37-18.7,18.7,0,1.2.11,2.38.33,3.52-21.94,13.99-45.11,26.89-69.34,38.64l-2.99-42.87-2.19-31.38-5.19-74.2h0s-.47-6.74-.47-6.74v-.03c0-.2-.02-.42-.02-.63,0-6.94,5.62-12.56,12.56-12.56.44,0,.88.02,1.31.07.2.02.4.04.61.08.43.07.88.16,1.3.26.6.16,1.17.36,1.72.6.21.09.41.17.61.28.3.14.59.3.88.47.12.07.24.15.36.23l1.23.73.07.04.6.36,3.39,2.04,38.16,22.92h0s1.76,1.07,1.76,1.07c19.72,17.7,40.99,28.78,63.55,33.08,6.61,1.26,12.66,1.8,18.39,1.88,2.96,6.44,9.46,10.9,17.01,10.9,8.89,0,16.34-6.21,18.24-14.54,10.67-1.6,22.05-2.97,36.57-2.52,33.98,1.07,68.54,12.12,102.76,32.83Z"/>
  <path class="cls-3" d="m703.26,465.28c0,.21,0,.43-.01.64l-.47,6.76h0s-3.99,57.23-3.99,57.23c-34.3-19.78-69.01-30.34-103.32-31.42-15.27-.48-27.5.97-38.29,2.57-3-6.33-9.45-10.71-16.92-10.71-8.8,0-16.18,6.08-18.18,14.26-4.7-.13-9.62-.62-14.95-1.64-16.87-3.22-33.04-10.73-48.36-22.46l56.13-48.79,5.96-5.19h0l12.33-10.72h.01c.43-.29.89-.55,1.37-.78.49-.24,1.01-.45,1.54-.62,1.23-.4,2.53-.62,3.88-.62s2.66.22,3.88.62h0c.54.17,1.04.38,1.54.62.49.23.96.49,1.4.78l12.33,10.72,5.97,5.19,64.18,55.79,11.17-6.72,5.21-3.12,32.95-19.8,5.33-3.2c.25-.15.5-.31.76-.45.64-.34,1.31-.64,1.99-.87.19-.07.38-.12.58-.17.28-.08.58-.16.87-.22.2-.04.42-.08.63-.11.36-.06.73-.09,1.11-.12.11,0,.23-.01.34-.02.15,0,.31,0,.46,0,6.93,0,12.55,5.62,12.55,12.56Z"/>
</svg>