<?xml version="1.0" encoding="UTF-8"?>
<svg id="Camada_1" data-name="Camada 1" xmlns="http://www.w3.org/2000/svg" xmlns:xlink="http://www.w3.org/1999/xlink" viewBox="0 0 1080 1080">
  <defs>
    <style>
      .cls-1 {
        fill: #7b5fa5;
      }

      .cls-1, .cls-2, .cls-3, .cls-4, .cls-5 {
        stroke-width: 0px;
      }

      .cls-6 {
        clip-path: url(#clippath-2);
      }

      .cls-2 {
        fill: #431a7e;
      }

      .cls-7 {
        clip-path: url(#clippath-6);
      }

      .cls-4 {
        fill: none;
      }

      .cls-8 {
        clip-path: url(#clippath-7);
      }

      .cls-9 {
        clip-path: url(#clippath-1);
      }

      .cls-10 {
        clip-path: url(#clippath-4);
      }

      .cls-11 {
        clip-path: url(#clippath);
      }

      .cls-12 {
        clip-path: url(#clippath-3);
      }

      .cls-13 {
        clip-path: url(#clippath-8);
      }

      .cls-5 {
        fill: #b4a3cb;
      }

      .cls-14 {
        clip-path: url(#clippath-5);
      }
    </style>
    <clipPath id="clippath">
      <rect class="cls-4" x="898.75" y="1100" width="102.5" height="154.29"/>
    </clipPath>
    <clipPath id="clippath-1">
      <rect class="cls-4" x="796.25" y="1100" width="102.5" height="154.29"/>
    </clipPath>
    <clipPath id="clippath-2">
      <rect class="cls-4" x="693.75" y="1100" width="102.5" height="154.29"/>
    </clipPath>
    <clipPath id="clippath-3">
      <rect class="cls-4" x="591.25" y="1100" width="102.5" height="154.29"/>
    </clipPath>
    <clipPath id="clippath-4">
      <rect class="cls-4" x="488.75" y="1100" width="102.5" height="154.29"/>
    </clipPath>
    <clipPath id="clippath-5">
      <rect class="cls-4" x="386.25" y="1100" width="102.5" height="154.29"/>
    </clipPath>
    <clipPath id="clippath-6">
      <rect class="cls-4" x="283.75" y="1100" width="102.5" height="154.29"/>
    </clipPath>
    <clipPath id="clippath-7">
      <rect class="cls-4" x="181.25" y="1100" width="102.5" height="154.29"/>
    </clipPath>
    <clipPath id="clippath-8">
      <rect class="cls-4" x="78.75" y="1100" width="102.5" height="154.29"/>
    </clipPath>
  </defs>
  <g>
    <g class="cls-11">
      <path class="cls-5" d="m1024.49,1110.88s-.06.08-.09.12l-1.04,1.18h0s-8.78,9.96-8.78,9.96c-3.52-8.46-8.42-15.28-14.58-20.3-2.74-2.23-5.19-3.69-7.4-4.91-3-1.56-5.12-2.74-6.95-4.28-.85-.68-1.68-1.47-2.52-2.4-2.65-2.96-4.56-6.62-5.73-10.93l17.18-1.08,1.82-.12h0s3.77-.24,3.77-.24h0c.12,0,.24.03.36.05.12.03.25.06.37.1.28.1.55.24.8.43s.46.41.63.66h0c.08.11.14.22.2.33.06.11.11.23.15.34l.76,3.7.37,1.79,3.95,19.28,3,.34,1.4.16,8.84.99,1.43.16c.07,0,.14.01.2.02.17.03.33.07.49.12.04.01.09.03.13.05.06.02.13.05.19.08.04.02.09.04.13.07.07.04.15.09.22.13.02.01.04.03.07.04.03.02.06.04.09.06,1.27.97,1.52,2.8.54,4.07Z"/>
      <path class="cls-5" d="m921.99,1110.88s-.06.08-.09.12l-1.04,1.18h0s-8.78,9.96-8.78,9.96c-3.52-8.46-8.42-15.28-14.58-20.3-2.74-2.23-5.19-3.69-7.4-4.91-3-1.56-5.12-2.74-6.95-4.28-.85-.68-1.68-1.47-2.52-2.4-2.65-2.96-4.56-6.62-5.73-10.93l17.18-1.08,1.82-.12h0s3.77-.24,3.77-.24h0c.12,0,.24.03.36.05.12.03.25.06.37.1.28.1.55.24.8.43s.46.41.63.66h0c.08.11.14.22.2.33.06.11.11.23.15.34l.76,3.7.37,1.79,3.95,19.28,3,.34,1.4.16,8.84.99,1.43.16c.07,0,.14.01.2.02.17.03.33.07.49.12.04.01.09.03.13.05.06.02.13.05.19.08.04.02.09.04.13.07.07.04.15.09.22.13.02.01.04.03.07.04.03.02.06.04.09.06,1.27.97,1.52,2.8.54,4.07Z"/>
    </g>
    <g class="cls-9">
      <path class="cls-5" d="m921.99,1110.88s-.06.08-.09.12l-1.04,1.18h0s-8.78,9.96-8.78,9.96c-3.52-8.46-8.42-15.28-14.58-20.3-2.74-2.23-5.19-3.69-7.4-4.91-3-1.56-5.12-2.74-6.95-4.28-.85-.68-1.68-1.47-2.52-2.4-2.65-2.96-4.56-6.62-5.73-10.93l17.18-1.08,1.82-.12h0s3.77-.24,3.77-.24h0c.12,0,.24.03.36.05.12.03.25.06.37.1.28.1.55.24.8.43s.46.41.63.66h0c.08.11.14.22.2.33.06.11.11.23.15.34l.76,3.7.37,1.79,3.95,19.28,3,.34,1.4.16,8.84.99,1.43.16c.07,0,.14.01.2.02.17.03.33.07.49.12.04.01.09.03.13.05.06.02.13.05.19.08.04.02.09.04.13.07.07.04.15.09.22.13.02.01.04.03.07.04.03.02.06.04.09.06,1.27.97,1.52,2.8.54,4.07Z"/>
      <path class="cls-5" d="m819.49,1110.88s-.06.08-.09.12l-1.04,1.18h0s-8.78,9.96-8.78,9.96c-3.52-8.46-8.42-15.28-14.58-20.3-2.74-2.23-5.19-3.69-7.4-4.91-3-1.56-5.12-2.74-6.95-4.28-.85-.68-1.68-1.47-2.52-2.4-2.65-2.96-4.56-6.62-5.73-10.93l17.18-1.08,1.82-.12h0s3.77-.24,3.77-.24h0c.12,0,.24.03.36.05.12.03.25.06.37.1.28.1.55.24.8.43s.46.41.63.66h0c.08.11.14.22.2.33.06.11.11.23.15.34l.76,3.7.37,1.79,3.95,19.28,3,.34,1.4.16,8.84.99,1.43.16c.07,0,.14.01.2.02.17.03.33.07.49.12.04.01.09.03.13.05.06.02.13.05.19.08.04.02.09.04.13.07.07.04.15.09.22.13.02.01.04.03.07.04.03.02.06.04.09.06,1.27.97,1.52,2.8.54,4.07Z"/>
    </g>
    <g class="cls-6">
      <path class="cls-5" d="m819.49,1110.88s-.06.08-.09.12l-1.04,1.18h0s-8.78,9.96-8.78,9.96c-3.52-8.46-8.42-15.28-14.58-20.3-2.74-2.23-5.19-3.69-7.4-4.91-3-1.56-5.12-2.74-6.95-4.28-.85-.68-1.68-1.47-2.52-2.4-2.65-2.96-4.56-6.62-5.73-10.93l17.18-1.08,1.82-.12h0s3.77-.24,3.77-.24h0c.12,0,.24.03.36.05.12.03.25.06.37.1.28.1.55.24.8.43s.46.41.63.66h0c.08.11.14.22.2.33.06.11.11.23.15.34l.76,3.7.37,1.79,3.95,19.28,3,.34,1.4.16,8.84.99,1.43.16c.07,0,.14.01.2.02.17.03.33.07.49.12.04.01.09.03.13.05.06.02.13.05.19.08.04.02.09.04.13.07.07.04.15.09.22.13.02.01.04.03.07.04.03.02.06.04.09.06,1.27.97,1.52,2.8.54,4.07Z"/>
      <path class="cls-5" d="m716.99,1110.88s-.06.08-.09.12l-1.04,1.18h0s-8.78,9.96-8.78,9.96c-3.52-8.46-8.42-15.28-14.58-20.3-2.74-2.23-5.19-3.69-7.4-4.91-3-1.56-5.12-2.74-6.95-4.28-.85-.68-1.68-1.47-2.52-2.4-2.65-2.96-4.56-6.62-5.73-10.93l17.18-1.08,1.82-.12h0s3.77-.24,3.77-.24h0c.12,0,.24.03.36.05.12.03.25.06.37.1.28.1.55.24.8.43s.46.41.63.66h0c.08.11.14.22.2.33.06.11.11.23.15.34l.76,3.7.37,1.79,3.95,19.28,3,.34,1.4.16,8.84.99,1.43.16c.07,0,.14.01.2.02.17.03.33.07.49.12.04.01.09.03.13.05.06.02.13.05.19.08.04.02.09.04.13.07.07.04.15.09.22.13.02.01.04.03.07.04.03.02.06.04.09.06,1.27.97,1.52,2.8.54,4.07Z"/>
    </g>
    <g class="cls-12">
      <path class="cls-5" d="m716.99,1110.88s-.06.08-.09.12l-1.04,1.18h0s-8.78,9.96-8.78,9.96c-3.52-8.46-8.42-15.28-14.58-20.3-2.74-2.23-5.19-3.69-7.4-4.91-3-1.56-5.12-2.74-6.95-4.28-.85-.68-1.68-1.47-2.52-2.4-2.65-2.96-4.56-6.62-5.73-10.93l17.18-1.08,1.82-.12h0s3.77-.24,3.77-.24h0c.12,0,.24.03.36.05.12.03.25.06.37.1.28.1.55.24.8.43s.46.41.63.66h0c.08.11.14.22.2.33.06.11.11.23.15.34l.76,3.7.37,1.79,3.95,19.28,3,.34,1.4.16,8.84.99,1.43.16c.07,0,.14.01.2.02.17.03.33.07.49.12.04.01.09.03.13.05.06.02.13.05.19.08.04.02.09.04.13.07.07.04.15.09.22.13.02.01.04.03.07.04.03.02.06.04.09.06,1.27.97,1.52,2.8.54,4.07Z"/>
      <path class="cls-5" d="m614.49,1110.88s-.06.08-.09.12l-1.04,1.18h0s-8.78,9.96-8.78,9.96c-3.52-8.46-8.42-15.28-14.58-20.3-2.74-2.23-5.19-3.69-7.4-4.91-3-1.56-5.12-2.74-6.95-4.28-.85-.68-1.68-1.47-2.52-2.4-2.65-2.96-4.56-6.62-5.73-10.93l17.18-1.08,1.82-.12h0s3.77-.24,3.77-.24h0c.12,0,.24.03.36.05.12.03.25.06.37.1.28.1.55.24.8.43s.46.41.63.66h0c.08.11.14.22.2.33.06.11.11.23.15.34l.76,3.7.37,1.79,3.95,19.28,3,.34,1.4.16,8.84.99,1.43.16c.07,0,.14.01.2.02.17.03.33.07.49.12.04.01.09.03.13.05.06.02.13.05.19.08.04.02.09.04.13.07.07.04.15.09.22.13.02.01.04.03.07.04.03.02.06.04.09.06,1.27.97,1.52,2.8.54,4.07Z"/>
    </g>
    <g class="cls-10">
      <path class="cls-5" d="m614.49,1110.88s-.06.08-.09.12l-1.04,1.18h0s-8.78,9.96-8.78,9.96c-3.52-8.46-8.42-15.28-14.58-20.3-2.74-2.23-5.19-3.69-7.4-4.91-3-1.56-5.12-2.74-6.95-4.28-.85-.68-1.68-1.47-2.52-2.4-2.65-2.96-4.56-6.62-5.73-10.93l17.18-1.08,1.82-.12h0s3.77-.24,3.77-.24h0c.12,0,.24.03.36.05.12.03.25.06.37.1.28.1.55.24.8.43s.46.41.63.66h0c.08.11.14.22.2.33.06.11.11.23.15.34l.76,3.7.37,1.79,3.95,19.28,3,.34,1.4.16,8.84.99,1.43.16c.07,0,.14.01.2.02.17.03.33.07.49.12.04.01.09.03.13.05.06.02.13.05.19.08.04.02.09.04.13.07.07.04.15.09.22.13.02.01.04.03.07.04.03.02.06.04.09.06,1.27.97,1.52,2.8.54,4.07Z"/>
      <path class="cls-5" d="m512,1110.88s-.06.08-.09.12l-1.04,1.18h0s-8.78,9.96-8.78,9.96c-3.52-8.46-8.42-15.28-14.58-20.3-2.74-2.23-5.19-3.69-7.4-4.91-3-1.56-5.12-2.74-6.95-4.28-.85-.68-1.68-1.47-2.52-2.4-2.65-2.96-4.56-6.62-5.73-10.93l17.18-1.08,1.82-.12h0s3.77-.24,3.77-.24h0c.12,0,.24.03.36.05.12.03.25.06.37.1.28.1.55.24.8.43s.46.41.63.66h0c.08.11.14.22.2.33.06.11.11.23.15.34l.76,3.7.37,1.79,3.95,19.28,3,.34,1.4.16,8.84.99,1.43.16c.07,0,.14.01.2.02.17.03.33.07.49.12.04.01.09.03.13.05.06.02.13.05.19.08.04.02.09.04.13.07.07.04.15.09.22.13.02.01.04.03.07.04.03.02.06.04.09.06,1.27.97,1.52,2.8.54,4.07Z"/>
    </g>
    <g class="cls-14">
      <path class="cls-5" d="m512,1110.88s-.06.08-.09.12l-1.04,1.18h0s-8.78,9.96-8.78,9.96c-3.52-8.46-8.42-15.28-14.58-20.3-2.74-2.23-5.19-3.69-7.4-4.91-3-1.56-5.12-2.74-6.95-4.28-.85-.68-1.68-1.47-2.52-2.4-2.65-2.96-4.56-6.62-5.73-10.93l17.18-1.08,1.82-.12h0s3.77-.24,3.77-.24h0c.12,0,.24.03.36.05.12.03.25.06.37.1.28.1.55.24.8.43s.46.41.63.66h0c.08.11.14.22.2.33.06.11.11.23.15.34l.76,3.7.37,1.79,3.95,19.28,3,.34,1.4.16,8.84.99,1.43.16c.07,0,.14.01.2.02.17.03.33.07.49.12.04.01.09.03.13.05.06.02.13.05.19.08.04.02.09.04.13.07.07.04.15.09.22.13.02.01.04.03.07.04.03.02.06.04.09.06,1.27.97,1.52,2.8.54,4.07Z"/>
      <path class="cls-5" d="m409.5,1110.88s-.06.08-.09.12l-1.04,1.18h0s-8.78,9.96-8.78,9.96c-3.52-8.46-8.42-15.28-14.58-20.3-2.74-2.23-5.19-3.69-7.4-4.91-3-1.56-5.12-2.74-6.95-4.28-.85-.68-1.68-1.47-2.52-2.4-2.65-2.96-4.56-6.62-5.73-10.93l17.18-1.08,1.82-.12h0s3.77-.24,3.77-.24h0c.12,0,.24.03.36.05.12.03.25.06.37.1.28.1.55.24.8.43s.46.41.63.66h0c.08.11.14.22.2.33.06.11.11.23.15.34l.76,3.7.37,1.79,3.95,19.28,3,.34,1.4.16,8.84.99,1.43.16c.07,0,.14.01.2.02.17.03.33.07.49.12.04.01.09.03.13.05.06.02.13.05.19.08.04.02.09.04.13.07.07.04.15.09.22.13.02.01.04.03.07.04.03.02.06.04.09.06,1.27.97,1.52,2.8.54,4.07Z"/>
    </g>
    <g class="cls-7">
      <path class="cls-5" d="m409.5,1110.88s-.06.08-.09.12l-1.04,1.18h0s-8.78,9.96-8.78,9.96c-3.52-8.46-8.42-15.28-14.58-20.3-2.74-2.23-5.19-3.69-7.4-4.91-3-1.56-5.12-2.74-6.95-4.28-.85-.68-1.68-1.47-2.52-2.4-2.65-2.96-4.56-6.62-5.73-10.93l17.18-1.08,1.82-.12h0s3.77-.24,3.77-.24h0c.12,0,.24.03.36.05.12.03.25.06.37.1.28.1.55.24.8.43s.46.41.63.66h0c.08.11.14.22.2.33.06.11.11.23.15.34l.76,3.7.37,1.79,3.95,19.28,3,.34,1.4.16,8.84.99,1.43.16c.07,0,.14.01.2.02.17.03.33.07.49.12.04.01.09.03.13.05.06.02.13.05.19.08.04.02.09.04.13.07.07.04.15.09.22.13.02.01.04.03.07.04.03.02.06.04.09.06,1.27.97,1.52,2.8.54,4.07Z"/>
      <path class="cls-5" d="m307,1110.88s-.06.08-.09.12l-1.04,1.18h0s-8.78,9.96-8.78,9.96c-3.52-8.46-8.42-15.28-14.58-20.3-2.74-2.23-5.19-3.69-7.4-4.91-3-1.56-5.12-2.74-6.95-4.28-.85-.68-1.68-1.47-2.52-2.4-2.65-2.96-4.56-6.62-5.73-10.93l17.18-1.08,1.82-.12h0s3.77-.24,3.77-.24h0c.12,0,.24.03.36.05.12.03.25.06.37.1.28.1.55.24.8.43s.46.41.63.66h0c.08.11.14.22.2.33.06.11.11.23.15.34l.76,3.7.37,1.79,3.95,19.28,3,.34,1.4.16,8.84.99,1.43.16c.07,0,.14.01.2.02.17.03.33.07.49.12.04.01.09.03.13.05.06.02.13.05.19.08.04.02.09.04.13.07.07.04.15.09.22.13.02.01.04.03.07.04.03.02.06.04.09.06,1.27.97,1.52,2.8.54,4.07Z"/>
    </g>
    <g class="cls-8">
      <path class="cls-5" d="m307,1110.88s-.06.08-.09.12l-1.04,1.18h0s-8.78,9.96-8.78,9.96c-3.52-8.46-8.42-15.28-14.58-20.3-2.74-2.23-5.19-3.69-7.4-4.91-3-1.56-5.12-2.74-6.95-4.28-.85-.68-1.68-1.47-2.52-2.4-2.65-2.96-4.56-6.62-5.73-10.93l17.18-1.08,1.82-.12h0s3.77-.24,3.77-.24h0c.12,0,.24.03.36.05.12.03.25.06.37.1.28.1.55.24.8.43s.46.41.63.66h0c.08.11.14.22.2.33.06.11.11.23.15.34l.76,3.7.37,1.79,3.95,19.28,3,.34,1.4.16,8.84.99,1.43.16c.07,0,.14.01.2.02.17.03.33.07.49.12.04.01.09.03.13.05.06.02.13.05.19.08.04.02.09.04.13.07.07.04.15.09.22.13.02.01.04.03.07.04.03.02.06.04.09.06,1.27.97,1.52,2.8.54,4.07Z"/>
      <path class="cls-5" d="m204.5,1110.88s-.06.08-.09.12l-1.04,1.18h0s-8.78,9.96-8.78,9.96c-3.52-8.46-8.42-15.28-14.58-20.3-2.74-2.23-5.19-3.69-7.4-4.91-3-1.56-5.12-2.74-6.95-4.28-.85-.68-1.68-1.47-2.52-2.4-2.65-2.96-4.56-6.62-5.73-10.93l17.18-1.08,1.82-.12h0s3.77-.24,3.77-.24h0c.12,0,.24.03.36.05.12.03.25.06.37.1.28.1.55.24.8.43s.46.41.63.66h0c.08.11.14.22.2.33.06.11.11.23.15.34l.76,3.7.37,1.79,3.95,19.28,3,.34,1.4.16,8.84.99,1.43.16c.07,0,.14.01.2.02.17.03.33.07.49.12.04.01.09.03.13.05.06.02.13.05.19.08.04.02.09.04.13.07.07.04.15.09.22.13.02.01.04.03.07.04.03.02.06.04.09.06,1.27.97,1.52,2.8.54,4.07Z"/>
    </g>
    <g class="cls-13">
      <path class="cls-5" d="m204.5,1110.88s-.06.08-.09.12l-1.04,1.18h0s-8.78,9.96-8.78,9.96c-3.52-8.46-8.42-15.28-14.58-20.3-2.74-2.23-5.19-3.69-7.4-4.91-3-1.56-5.12-2.74-6.95-4.28-.85-.68-1.68-1.47-2.52-2.4-2.65-2.96-4.56-6.62-5.73-10.93l17.18-1.08,1.82-.12h0s3.77-.24,3.77-.24h0c.12,0,.24.03.36.05.12.03.25.06.37.1.28.1.55.24.8.43s.46.41.63.66h0c.08.11.14.22.2.33.06.11.11.23.15.34l.76,3.7.37,1.79,3.95,19.28,3,.34,1.4.16,8.84.99,1.43.16c.07,0,.14.01.2.02.17.03.33.07.49.12.04.01.09.03.13.05.06.02.13.05.19.08.04.02.09.04.13.07.07.04.15.09.22.13.02.01.04.03.07.04.03.02.06.04.09.06,1.27.97,1.52,2.8.54,4.07Z"/>
      <path class="cls-5" d="m102,1110.88s-.06.08-.09.12l-1.04,1.18h0s-8.78,9.96-8.78,9.96c-3.52-8.46-8.42-15.28-14.58-20.3-2.74-2.23-5.19-3.69-7.4-4.91-3-1.56-5.12-2.74-6.95-4.28-.85-.68-1.68-1.47-2.52-2.4-2.65-2.96-4.56-6.62-5.73-10.93l17.18-1.08,1.82-.12h0s3.77-.24,3.77-.24h0c.12,0,.24.03.36.05.12.03.25.06.37.1.28.1.55.24.8.43s.46.41.63.66h0c.08.11.14.22.2.33.06.11.11.23.15.34l.76,3.7.37,1.79,3.95,19.28,3,.34,1.4.16,8.84.99,1.43.16c.07,0,.14.01.2.02.17.03.33.07.49.12.04.01.09.03.13.05.06.02.13.05.19.08.04.02.09.04.13.07.07.04.15.09.22.13.02.01.04.03.07.04.03.02.06.04.09.06,1.27.97,1.52,2.8.54,4.07Z"/>
    </g>
  </g>
  <g>
    <g>
      <g>
        <path class="cls-3" d="m362.71,630.44l-12.07,5.47,9.05-10.18v-.02s31.62-35.43,31.62-35.43h-21.04l-33.67,37.06v-37.06h-18.33v87.43h18.33v-27.7l11.67-12.62,25.11,40.32h19.55l-30.23-47.27Z"/>
        <path class="cls-3" d="m468.42,599.65c-7.15-7.15-17.74-10.73-31.77-10.73s-24.62,3.57-31.77,10.73c-7.15,7.15-10.73,18.73-10.73,34.75,0,29.78,14.16,44.67,42.49,44.67s42.49-14.89,42.49-44.67c0-16.02-3.58-27.6-10.73-34.75Zm-13.64,56.68c-3.85,4.75-9.89,7.13-18.12,7.13s-14.28-2.38-18.12-7.13c-3.85-4.76-5.77-12.06-5.77-21.93,0-10.95,1.92-18.66,5.77-23.14,3.84-4.48,9.89-6.72,18.12-6.72s14.27,2.24,18.12,6.72c3.84,4.48,5.77,12.2,5.77,23.14,0,9.87-1.92,17.17-5.77,21.93Z"/>
        <path class="cls-3" d="m491.91,601.12v76.58h18.33v-87.43l-18.33,10.85Z"/>
        <path class="cls-3" d="m597.25,599.65c-7.15-7.15-17.74-10.73-31.77-10.73s-24.62,3.57-31.77,10.73c-7.15,7.15-10.73,18.73-10.73,34.75,0,29.78,14.16,44.67,42.49,44.67s42.49-14.89,42.49-44.67c0-16.02-3.58-27.6-10.73-34.75Zm-13.64,56.68c-3.85,4.75-9.89,7.13-18.12,7.13s-14.28-2.38-18.13-7.13c-3.84-4.76-5.76-12.06-5.76-21.93,0-10.95,1.92-18.66,5.76-23.14,3.85-4.48,9.89-6.72,18.13-6.72s14.27,2.24,18.12,6.72c3.84,4.48,5.77,12.2,5.77,23.14,0,9.87-1.93,17.17-5.77,21.93Z"/>
        <path class="cls-3" d="m681.08,642.54c-1.5-3.35-4.19-6.33-8.08-8.96-3.89-2.62-9.41-4.89-16.56-6.79-5.16-1.36-9.16-2.58-12.02-3.66-2.85-1.09-4.86-2.31-6.04-3.67-1.18-1.36-1.76-3.17-1.76-5.43,0-3.89,1.63-6.45,4.89-7.67,3.26-1.23,7.74-1.83,13.44-1.83,8.05,0,15.79,1.4,23.21,4.21v-16.15c-2.8-1-6.47-1.85-10.99-2.58-4.53-.72-9.41-1.08-14.66-1.08-11.22,0-19.78,2.17-25.66,6.51-5.88,4.35-8.82,10.55-8.82,18.6,0,6.7,1.85,11.95,5.57,15.75,3.71,3.8,10.14,6.97,19.27,9.51,5.7,1.54,10.12,2.92,13.24,4.14,3.12,1.23,5.32,2.6,6.59,4.14,1.26,1.54,1.9,3.62,1.9,6.24,0,4.16-1.49,6.84-4.48,8.01-2.99,1.18-7.65,1.77-13.99,1.77-4.44,0-8.96-.5-13.57-1.49-4.61-1-8.91-2.31-12.9-3.94v16.15c3.53,1.54,7.72,2.71,12.56,3.53,4.84.81,10.07,1.22,15.68,1.22,12.03,0,20.95-2.31,26.74-6.92,5.79-4.61,8.69-10.73,8.69-18.33,0-4.16-.75-7.92-2.24-11.27Z"/>
      </g>
      <g>
        <path class="cls-3" d="m725.26,642.01c-2.58,0-4.83-.35-6.73-1.05-1.91-.7-3.67-1.74-5.27-3.13l-.54,3.41h-9.06v-52.18h10.45v17.5c1.5-.93,3.17-1.63,5.03-2.09,1.86-.47,3.79-.7,5.81-.7,5.27,0,9.43,1.48,12.5,4.45,3.07,2.97,4.61,7.76,4.61,14.36s-1.51,11.5-4.53,14.67c-3.02,3.17-7.11,4.76-12.27,4.76Zm-2.94-7.67c3.36,0,5.72-.98,7.08-2.94,1.37-1.96,2.05-4.9,2.05-8.83s-.74-6.96-2.21-8.63c-1.47-1.68-3.81-2.52-7.01-2.52-1.6,0-3.11.23-4.53.7-1.42.46-2.62,1.14-3.6,2.01v16.88c1.03,1.08,2.26,1.91,3.68,2.48,1.42.57,2.93.85,4.53.85Z"/>
        <path class="cls-3" d="m751.2,641.23v-28.96h-5.5l.93-7.74h15.02v36.7h-10.45Zm-.85-43.43v-8.21h11.38v8.21h-11.38Z"/>
      </g>
    </g>
    <g>
      <path class="cls-2" d="m623.99,486.56c-10.5-.09-20.93.58-31.24,2.02-1.9-2.84-5.14-4.71-8.81-4.71-5.03,0-9.25,3.51-10.32,8.22h0c-8.01,1.74-18.78,4.4-30.38,8.86-16.9,6.49-32.23,15.55-45.57,26.91-5.78,4.92-11.18,10.26-16.19,15.99h-12.66c-.08,0-.18,0-.26,0-.06,0-.12,0-.19-.01-.33-.02-.66-.06-.98-.13-.14-.03-.27-.06-.41-.1-.05-.02-.1-.03-.15-.05-.08-.02-.17-.05-.25-.08,0,0-.01,0-.02,0-.11-.04-.21-.08-.32-.12-.37-.14-.72-.32-1.06-.52-.08-.05-.17-.1-.24-.15-.08-.05-.16-.1-.23-.16-.57-.4-1.08-.89-1.51-1.44-.05-.06-.09-.12-.14-.18l-.14-.2c-.08-.12-.16-.25-.23-.38-.05-.08-.09-.15-.13-.23-.09-.17-.18-.34-.26-.53-.03-.06-.05-.13-.08-.19l-.3-4.37h0s-.38-5.39-.38-5.39l-.27-3.87c14.76-7.04,28.87-14.83,42.19-23.3,1.86,1.62,4.29,2.6,6.95,2.6,5.85,0,10.59-4.74,10.59-10.59,0-1.12-.17-2.2-.5-3.22,9.08-5.91,16.56-10.03,28.13-12.78,28.3-6.72,55.04,1.39,63.83,4.06,3.9,1.18,7.74,2.53,11.54,4.04Z"/>
      <path class="cls-2" d="m635.03,493.87v.18s-2.15,30.59-2.15,30.59h0s-.35,4.99-.35,4.99l-.38,5.38h0s-.31,4.39-.31,4.39h0c-.02.05-.04.1-.06.14-.04.08-.07.16-.11.24-.08.19-.18.38-.29.56,0,0,0,0,0,.01-.04.06-.07.13-.12.18-.19.31-.41.6-.65.88-.12.13-.23.26-.36.38-.12.12-.24.23-.37.34-.07.07-.15.14-.23.19-.11.09-.24.19-.36.27-.13.09-.26.17-.39.25-.55.33-1.16.59-1.8.76-.14.03-.27.07-.41.1-.32.06-.64.11-.98.13-.07,0-.13,0-.2.01-.08,0-.17,0-.26,0h-134.42c3.58-3.77,7.36-7.35,11.32-10.73,26.39-22.49,54.26-30.22,72.22-34.13,1.7,3.58,5.34,6.06,9.57,6.06,5.56,0,10.12-4.29,10.56-9.73,13.34-1.81,26.9-2.29,40.53-1.45Z"/>
      <path class="cls-1" d="m636.39,474.39l-.14,1.91-.55,7.85c-6.88-3.27-13.99-6.03-21.25-8.24-9.23-2.8-37.32-11.32-67.43-4.18-12.78,3.03-21.09,7.7-30.69,13.96-1.69-1.15-3.74-1.82-5.94-1.82-5.85,0-10.59,4.74-10.59,10.59,0,.68.06,1.35.19,1.99-12.42,7.92-25.54,15.23-39.26,21.88l-1.69-24.28-1.24-17.77-2.94-42.01h0s-.27-3.81-.27-3.81v-.02c0-.11-.01-.24-.01-.36,0-3.93,3.18-7.11,7.11-7.11.25,0,.5.01.74.04.11.01.23.02.34.05.25.04.5.09.73.15.34.09.66.2.97.34.12.05.23.1.35.16.17.08.33.17.5.27.07.04.14.08.2.13l.7.41.04.02.34.2,1.92,1.15,21.61,12.98h0s1,.6,1,.6c11.17,10.02,23.21,16.3,35.98,18.73,3.74.71,7.17,1.02,10.41,1.06,1.68,3.64,5.36,6.17,9.63,6.17,5.04,0,9.25-3.52,10.33-8.23,6.04-.9,12.49-1.68,20.71-1.43,19.24.61,38.81,6.86,58.19,18.59Z"/>
      <path class="cls-5" d="m639.47,430.09c0,.12,0,.25,0,.36l-.27,3.83h0s-2.26,32.4-2.26,32.4c-19.42-11.2-39.08-17.18-58.5-17.79-8.64-.27-15.57.55-21.68,1.46-1.7-3.59-5.35-6.07-9.58-6.07-4.98,0-9.16,3.44-10.29,8.08-2.66-.07-5.45-.35-8.46-.93-9.55-1.82-18.71-6.08-27.38-12.72l31.78-27.63,3.37-2.94h0l6.98-6.07h0c.25-.16.51-.31.78-.44.28-.14.57-.25.87-.35.7-.23,1.43-.35,2.2-.35s1.5.12,2.2.35h0c.3.1.59.21.87.35.28.13.54.28.79.44l6.98,6.07,3.38,2.94,36.34,31.59,6.33-3.8,2.95-1.77,18.65-11.21,3.02-1.81c.14-.09.29-.18.43-.25.36-.19.74-.36,1.13-.49.11-.04.21-.07.33-.1.16-.05.33-.09.49-.12.12-.02.24-.05.36-.06.2-.03.41-.05.63-.07.06,0,.13,0,.19-.01.08,0,.18,0,.26,0,3.92,0,7.11,3.18,7.11,7.11Z"/>
    </g>
  </g>
</svg>
