<svg width="624" height="133" viewBox="0 0 624 133" fill="none" xmlns="http://www.w3.org/2000/svg">
<path d="M256.18 88.0906L245.08 93.1207L253.41 83.7507L282.51 51.1406H263.15L232.18 85.2407V51.1406H215.32V131.571H232.18V106.091L242.92 94.4807L266.02 131.581H284L256.19 88.0906H256.18Z" fill="black"/>
<path d="M353.44 59.7607C346.86 53.1807 337.12 49.8906 324.22 49.8906C311.32 49.8906 301.57 53.1807 295 59.7607C288.42 66.3407 285.13 76.9907 285.13 91.7307C285.13 119.131 298.16 132.821 324.22 132.821C350.28 132.821 363.31 119.131 363.31 91.7307C363.31 76.9907 360.02 66.3407 353.44 59.7607ZM340.89 111.901C337.35 116.271 331.79 118.461 324.22 118.461C316.65 118.461 311.09 116.271 307.55 111.901C304.01 107.521 302.24 100.811 302.24 91.7307C302.24 81.6607 304.01 74.5607 307.55 70.4407C311.09 66.3207 316.64 64.2607 324.22 64.2607C331.8 64.2607 337.35 66.3207 340.89 70.4407C344.43 74.5607 346.2 81.6607 346.2 91.7307C346.2 100.811 344.43 107.531 340.89 111.901Z" fill="black"/>
<path d="M375.04 61.1207V131.571H391.9V51.1406L375.04 61.1207Z" fill="black"/>
<path d="M471.95 59.7607C465.37 53.1807 455.63 49.8906 442.73 49.8906C429.83 49.8906 420.08 53.1807 413.51 59.7607C406.93 66.3407 403.64 76.9907 403.64 91.7307C403.64 119.131 416.67 132.821 442.73 132.821C468.79 132.821 481.82 119.131 481.82 91.7307C481.82 76.9907 478.53 66.3407 471.95 59.7607ZM459.4 111.901C455.86 116.271 450.3 118.461 442.73 118.461C435.16 118.461 429.6 116.271 426.05 111.901C422.51 107.521 420.75 100.811 420.75 91.7307C420.75 81.6607 422.52 74.5607 426.05 70.4407C429.59 66.3207 435.15 64.2607 442.73 64.2607C450.31 64.2607 455.86 66.3207 459.4 70.4407C462.94 74.5607 464.71 81.6607 464.71 91.7307C464.71 100.811 462.94 107.531 459.4 111.901Z" fill="black"/>
<path d="M549.07 99.2206C547.69 96.1406 545.22 93.3907 541.64 90.9807C538.06 88.5707 532.98 86.4907 526.4 84.7307C521.66 83.4807 517.97 82.3607 515.35 81.3607C512.73 80.3607 510.88 79.2307 509.79 77.9907C508.71 76.7407 508.17 75.0807 508.17 72.9907C508.17 69.4107 509.67 67.0607 512.66 65.9407C515.66 64.8107 519.78 64.2507 525.03 64.2507C532.44 64.2507 539.56 65.5407 546.38 68.1207V53.2607C543.8 52.3407 540.43 51.5506 536.27 50.8906C532.1 50.2306 527.61 49.8906 522.78 49.8906C512.45 49.8906 504.59 51.8907 499.17 55.8807C493.76 59.8807 491.05 65.5807 491.05 72.9907C491.05 79.1607 492.76 83.9807 496.17 87.4807C499.58 90.9807 505.49 93.9007 513.9 96.2307C519.15 97.6507 523.21 98.9106 526.08 100.041C528.95 101.171 530.97 102.431 532.14 103.851C533.3 105.271 533.89 107.181 533.89 109.591C533.89 113.421 532.52 115.881 529.77 116.961C527.02 118.051 522.73 118.591 516.9 118.591C512.82 118.591 508.66 118.131 504.41 117.221C500.16 116.301 496.21 115.091 492.54 113.601V128.461C495.79 129.881 499.64 130.951 504.09 131.711C508.54 132.461 513.35 132.831 518.52 132.831C529.59 132.831 537.79 130.701 543.12 126.461C548.44 122.211 551.11 116.591 551.11 109.601C551.11 105.771 550.42 102.321 549.05 99.2307L549.07 99.2206Z" fill="black"/>
<path d="M589.72 98.7297C587.34 98.7297 585.28 98.4097 583.52 97.7697C581.76 97.1297 580.15 96.1697 578.68 94.8897L578.18 98.0197H569.85V50.0098H579.47V66.1097C580.85 65.2597 582.39 64.6098 584.1 64.1898C585.81 63.7698 587.59 63.5497 589.44 63.5497C594.28 63.5497 598.12 64.9197 600.94 67.6497C603.76 70.3797 605.18 74.7797 605.18 80.8597C605.18 86.9397 603.79 91.4397 601.01 94.3597C598.23 97.2797 594.47 98.7397 589.72 98.7397V98.7297ZM587.01 91.6797C590.1 91.6797 592.27 90.7797 593.53 88.9697C594.79 87.1697 595.42 84.4597 595.42 80.8497C595.42 77.2397 594.74 74.4497 593.39 72.9097C592.04 71.3697 589.89 70.5997 586.94 70.5997C585.47 70.5997 584.08 70.8097 582.77 71.2397C581.46 71.6697 580.36 72.2797 579.46 73.0897V88.6198C580.41 89.6198 581.54 90.3797 582.84 90.8997C584.15 91.4197 585.53 91.6797 587.01 91.6797Z" fill="black"/>
<path d="M613.58 98.0197V71.3798H608.52L609.37 64.2598H623.19V98.0197H613.57H613.58ZM612.8 58.0598V50.5098H623.27V58.0598H612.8Z" fill="black"/>
<path d="M157.41 79.5906C147.66 79.5106 137.96 80.1306 128.38 81.4606C126.62 78.8206 123.61 77.0805 120.2 77.0805C115.52 77.0805 111.61 80.3406 110.61 84.7206C103.17 86.3306 93.1599 88.8106 82.3699 92.9506C66.6699 98.9806 52.4199 107.401 40.0199 117.961C34.6499 122.541 29.63 127.501 24.98 132.821H13.21C13.13 132.821 13.05 132.821 12.97 132.821C12.91 132.821 12.85 132.821 12.79 132.811C12.48 132.791 12.18 132.751 11.88 132.691C11.75 132.661 11.63 132.631 11.5 132.601C11.45 132.581 11.4 132.571 11.36 132.561C11.28 132.541 11.2 132.511 11.13 132.491C11.13 132.491 11.12 132.491 11.11 132.491C11.01 132.451 10.91 132.421 10.82 132.381C10.47 132.251 10.15 132.091 9.83995 131.901C9.75995 131.861 9.68995 131.811 9.60995 131.761C9.53995 131.711 9.45996 131.661 9.39996 131.611C8.86996 131.231 8.38995 130.781 7.99995 130.271C7.95995 130.211 7.91996 130.161 7.86996 130.101L7.73996 129.921C7.66996 129.811 7.58996 129.691 7.51996 129.571C7.47996 129.501 7.43996 129.431 7.39996 129.351C7.30996 129.191 7.22996 129.031 7.15996 128.861C7.12996 128.801 7.10995 128.741 7.08995 128.681L6.80995 124.621L6.45996 119.611L6.20996 116.011C19.93 109.471 33.03 102.231 45.41 94.3506C47.14 95.8606 49.3999 96.7705 51.8699 96.7705C57.3099 96.7705 61.7099 92.3606 61.7099 86.9306C61.7099 85.8906 61.55 84.8806 61.25 83.9406C69.69 78.4506 76.64 74.6206 87.39 72.0706C113.69 65.8306 138.54 73.3706 146.71 75.8406C150.33 76.9406 153.91 78.1906 157.43 79.6006L157.41 79.5906Z" fill="#431A7E"/>
<path d="M167.67 86.381V86.551L165.67 114.971L165.34 119.601L164.99 124.601L164.7 128.681C164.7 128.681 164.66 128.771 164.65 128.811C164.62 128.891 164.58 128.961 164.55 129.031C164.47 129.211 164.38 129.381 164.28 129.551C164.28 129.551 164.28 129.551 164.28 129.561C164.24 129.621 164.21 129.681 164.17 129.731C163.99 130.021 163.79 130.291 163.56 130.551C163.45 130.671 163.34 130.791 163.23 130.901C163.12 131.011 163.01 131.121 162.88 131.221C162.81 131.291 162.74 131.351 162.66 131.401C162.56 131.491 162.44 131.571 162.33 131.651C162.21 131.731 162.09 131.811 161.97 131.881C161.46 132.191 160.89 132.431 160.3 132.591C160.17 132.621 160.05 132.651 159.92 132.681C159.63 132.741 159.32 132.781 159.01 132.801C158.95 132.801 158.89 132.801 158.83 132.811C158.75 132.811 158.67 132.811 158.59 132.811H33.6799C37.0099 129.311 40.52 125.981 44.2 122.841C68.73 101.941 94.6199 94.761 111.31 91.131C112.89 94.461 116.28 96.761 120.2 96.761C125.37 96.761 129.6 92.781 130.01 87.721C142.41 86.041 155.01 85.591 167.67 86.371V86.381Z" fill="#431A7E"/>
<path d="M168.94 68.2697L168.81 70.0398L168.3 77.3398C161.91 74.2998 155.3 71.7298 148.55 69.6898C139.97 67.0898 113.87 59.1698 85.89 65.8098C74.02 68.6298 66.3 72.9598 57.37 78.7898C55.8 77.7198 53.89 77.0998 51.85 77.0998C46.41 77.0998 42.01 81.4998 42.01 86.9398C42.01 87.5698 42.07 88.1898 42.19 88.7898C30.65 96.1498 18.46 102.94 5.71001 109.12L4.14 86.5598L2.99001 70.0498L0.26001 31.0098L0.0100098 27.4698V27.4498C0.0100098 27.3498 0 27.2298 0 27.1198C0 23.4698 2.96 20.5098 6.61 20.5098C6.84 20.5098 7.07 20.5198 7.3 20.5498C7.4 20.5598 7.51001 20.5698 7.62001 20.5898C7.85001 20.6298 8.08 20.6698 8.3 20.7298C8.61 20.8098 8.91001 20.9198 9.21001 21.0398C9.32001 21.0898 9.43 21.1298 9.53 21.1898C9.69 21.2598 9.84001 21.3498 9.99001 21.4398C10.05 21.4798 10.12 21.5198 10.18 21.5598L10.83 21.9498L10.87 21.9698L11.19 22.1598L12.97 23.2298L33.05 35.2898L33.98 35.8498C44.36 45.1598 55.55 50.9898 67.42 53.2598C70.9 53.9198 74.08 54.2098 77.1 54.2498C78.66 57.6398 82.08 59.9898 86.05 59.9898C90.73 59.9898 94.65 56.7198 95.65 52.3398C101.27 51.4998 107.25 50.7797 114.89 51.0197C132.77 51.5797 150.96 57.3898 168.96 68.2898L168.94 68.2697Z" fill="#7B5FA5"/>
<path d="M171.8 27.1C171.8 27.21 171.8 27.33 171.8 27.44L171.55 30.99L169.45 61.1C151.4 50.69 133.14 45.14 115.08 44.57C107.05 44.32 100.61 45.08 94.9399 45.92C93.3599 42.59 89.9699 40.28 86.0399 40.28C81.4099 40.28 77.5199 43.48 76.4799 47.79C74.0099 47.72 71.4199 47.46 68.6199 46.93C59.7399 45.24 51.2399 41.28 43.1699 35.11L72.6999 9.44L75.8299 6.71002L82.3199 1.07001C82.5499 0.920007 82.7899 0.780004 83.0399 0.660004C83.2999 0.530004 83.5699 0.420017 83.8499 0.330017C84.4999 0.120017 85.1799 0 85.8899 0C86.5999 0 87.2899 0.120017 87.9299 0.330017C88.2099 0.420017 88.4799 0.530004 88.7399 0.660004C88.9999 0.780004 89.2399 0.920007 89.4699 1.07001L95.9599 6.71002L99.0999 9.44L132.87 38.8L138.75 35.27L141.49 33.63L158.83 23.21L161.63 21.53C161.76 21.45 161.89 21.36 162.03 21.29C162.37 21.11 162.72 20.95 163.08 20.83C163.18 20.79 163.28 20.76 163.38 20.74C163.53 20.7 163.68 20.66 163.84 20.62C163.95 20.6 164.06 20.58 164.17 20.56C164.36 20.53 164.56 20.51 164.75 20.5C164.81 20.5 164.87 20.5 164.93 20.49C165.01 20.49 165.09 20.49 165.17 20.49C168.82 20.49 171.78 23.45 171.78 27.1H171.8Z" fill="#B4A3CB"/>
</svg>
