<svg width="224" height="261" viewBox="0 0 224 261" fill="none" xmlns="http://www.w3.org/2000/svg">
<path d="M218.86 30.0606C209.16 20.3006 202.36 13.4806 192.44 3.64062H188.58V33.8406H218.86V30.0406V30.0606Z" fill="#5F65A5"/>
<path d="M174.54 0H64.8203V121.02H88.9803V137.8L100.78 126L134.86 160.14L123.06 171.88H139.78V210.22H223.14V47.9H174.54V0Z" fill="#5F65A5"/>
<path d="M129.7 181.938H111.8C110.8 178.738 109.54 175.658 108 172.798L114.16 166.598L120.66 160.098L100.76 140.198L88.1201 152.838C85.7201 151.558 83.16 150.478 80.52 149.598C79.98 149.418 79.48 149.198 78.94 149.038V131.078H50.78V148.918C47.54 149.898 44.38 151.098 41.44 152.718L28.94 140.218L9 160.098L21.5 172.538C19.82 175.498 18.48 178.658 17.42 181.958H0V210.118H17.34C18.32 213.418 19.66 216.658 21.28 219.738L8.97998 231.958L28.92 251.838L41.14 239.538C44.16 241.218 47.4 242.498 50.76 243.538V260.878H78.92V243.378C82.22 242.398 85.38 241.058 88.4 239.438L100.76 251.798L120.64 231.918L108.14 219.338C109.68 216.458 110.88 213.358 111.8 210.198C111.8 210.198 111.8 210.198 111.8 210.178C111.8 210.178 111.86 210.098 111.86 210.058H129.68V181.918L129.7 181.938ZM86.4999 210.238C85.4399 211.918 84.18 213.398 82.78 214.798C82.36 215.218 81.86 215.638 81.3 216.138C80.8 216.498 80.3199 216.918 79.7599 217.338C79.0599 217.838 78.36 218.318 77.58 218.738C76.52 219.378 75.34 219.938 74.14 220.418C73.3 220.698 72.38 221.058 71.4 221.258C70.7 221.538 69.86 221.678 69.08 221.818C68.52 221.958 68.1 222.038 67.54 222.038C66.62 222.118 65.58 222.178 64.58 222.178C50.26 222.178 38.6 210.518 38.6 196.198C38.6 181.878 50.26 170.218 64.58 170.218H64.78C67.46 170.218 70.08 170.698 72.48 171.438C73.68 171.858 74.8599 172.418 75.9999 172.958C76.2999 173.098 76.64 173.218 76.94 173.378C77.08 173.458 77.22 173.518 77.3 173.598C77.54 173.738 77.74 173.918 77.98 174.038C78.88 174.558 79.8 175.098 80.6 175.798C86.7 180.478 90.58 187.918 90.58 196.218C90.58 197.258 90.5199 198.178 90.3799 199.158C90.2999 199.938 90.24 200.698 90.02 201.478C89.82 202.498 89.46 203.458 89.14 204.418C88.46 206.478 87.6199 208.458 86.4999 210.238H86.52C86.52 210.238 86.52 210.238 86.52 210.258L86.4999 210.238Z" fill="#5F65A5"/>
</svg>
