<svg width="221" height="263" viewBox="0 0 221 263" fill="none" xmlns="http://www.w3.org/2000/svg">
<path d="M196.06 153.8C186.7 153.8 178.66 159.1 174.5 166.8H150.96C129.28 166.8 111.64 184.44 111.64 206.12V222.98C111.64 233.46 103.1 242 92.6201 242C82.1401 242 73.6 233.46 73.6 222.98V150.12C103.84 145.2 126.88 118.58 126.88 87.54V59.64C126.88 57.16 125.96 54.82 124.34 53.02V44.02C124.34 26.8 112.74 11.78 96.36 7.26001C94.1 2.86001 89.56 0 84.42 0C77 0 70.94 6.04004 70.94 13.48C70.94 20.92 76.98 26.96 84.42 26.96C88.28 26.96 91.84 25.34 94.34 22.6C103.08 25.94 109.14 34.46 109.14 44.02V53.02C107.52 54.84 106.6 57.16 106.6 59.64V87.54C106.6 111.32 87.24 130.68 63.46 130.68C39.68 130.68 20.32 111.34 20.32 87.54V59.64C20.32 57.16 19.4 54.82 17.78 53.02V44.02C17.78 34.96 23.2 26.8 31.3 23.14C33.76 25.56 37.1001 26.96 40.6801 26.96C48.1001 26.96 54.16 20.92 54.16 13.48C54.16 6.04004 48.1201 0 40.6801 0C35.2801 0 30.54 3.2 28.42 7.94C13.04 13.16 2.54004 27.6 2.54004 44.02V53.02C0.920039 54.84 0 57.16 0 59.64V87.54C0 118.56 23.06 145.2 53.28 150.12V222.98C53.28 244.66 70.92 262.28 92.6 262.28C114.28 262.28 131.92 244.64 131.92 222.98V206.12C131.92 195.64 140.46 187.1 150.94 187.1H173.1C176.62 196.36 185.52 202.98 196.02 202.98C209.6 202.98 220.6 191.98 220.6 178.4C220.6 164.82 209.6 153.82 196.02 153.82L196.06 153.8Z" fill="#5F65A5"/>
</svg>
