<?xml version="1.0" encoding="UTF-8"?>
<svg id="Camada_1" data-name="Camada 1" xmlns="http://www.w3.org/2000/svg" viewBox="0 0 1080 1080">
  <defs>
    <style>
      .cls-1 {
        fill: #751a7e;
        stroke-width: 0px;
      }
    </style>
  </defs>
  <g>
    <path class="cls-1" d="m687.51,129.82c-.87,0-1.73,0-2.59-.02-72.77-.48-110.16-21.84-146.32-42.49-35.55-20.31-72.32-41.31-143.75-41.75-.82-.01-1.6-.01-2.38-.01-5.5,0-10.79.12-15.71.35-62.73,2.75-97.14,22.41-130.42,41.42-35.33,20.18-71.86,41.05-141.43,42.43-5.89.1-12.05.09-18.39-.09-32.76-.97-60.24-6.19-86.51-16.43l2.04-5.23c25.64,10,52.54,15.1,84.63,16.05,6.25.17,12.34.19,18.13.08,68.13-1.35,104.03-21.86,138.75-41.69,33.86-19.34,68.87-39.34,132.95-42.15,5.73-.27,12.02-.44,18.42-.34,72.87.45,110.29,21.83,146.47,42.49,35.53,20.29,72.27,41.28,143.6,41.75.86.02,1.68.02,2.52.02,5.36,0,10.61-.11,15.61-.33,62.81-2.74,97.25-22.41,130.55-41.44,35.31-20.17,71.82-41.02,141.28-42.43,5.93-.1,11.96-.09,18.39.09,32.79.94,60.32,6.16,86.66,16.43l-2.04,5.23c-25.72-10.03-52.65-15.12-84.78-16.05-6.34-.18-12.3-.18-18.13-.08-68.02,1.38-103.9,21.87-138.6,41.69-33.89,19.35-68.93,39.37-133.09,42.17-5.07.23-10.41.34-15.85.34Z"/>
    <circle class="cls-1" cx="95.71" cy="126.38" r="9.16"/>
    <circle class="cls-1" cx="694.1" cy="126.38" r="9.16"/>
    <circle class="cls-1" cx="385.75" cy="43.58" r="9.16"/>
    <circle class="cls-1" cx="984.14" cy="43.58" r="9.16"/>
  </g>
  <g>
    <path class="cls-1" d="m687.51,230.93c-.87,0-1.73,0-2.59-.01-72.78-.48-110.17-21.84-146.33-42.49-35.55-20.31-72.32-41.31-143.75-41.75-.82-.02-1.6-.02-2.38-.02-5.5,0-10.79.12-15.71.35-62.73,2.75-97.14,22.41-130.42,41.42-35.33,20.18-71.86,41.05-141.43,42.43-5.87.1-12.01.09-18.39-.09-32.76-.97-60.25-6.19-86.51-16.43l2.04-5.23c25.64,10,52.53,15.1,84.63,16.05,6.29.18,12.36.18,18.13.08,68.13-1.36,104.03-21.86,138.75-41.69,33.86-19.34,68.87-39.34,132.95-42.15,5.73-.27,12.02-.45,18.42-.34,72.87.45,110.28,21.83,146.47,42.49,35.53,20.29,72.27,41.28,143.6,41.75,6.32.1,12.38-.06,18.13-.32,62.81-2.74,97.24-22.41,130.55-41.44,35.31-20.17,71.82-41.02,141.28-42.43,5.9-.1,12.06-.1,18.4.09,32.79.94,60.32,6.16,86.66,16.43l-2.04,5.23c-25.72-10.03-52.65-15.12-84.78-16.05-6.24-.18-12.33-.18-18.13-.08-68.02,1.38-103.9,21.87-138.6,41.69-33.89,19.35-68.93,39.37-133.09,42.17-5.05.22-10.39.34-15.85.34Z"/>
    <circle class="cls-1" cx="95.71" cy="227.5" r="9.16"/>
    <circle class="cls-1" cx="694.1" cy="227.5" r="9.16"/>
    <circle class="cls-1" cx="385.75" cy="144.7" r="9.16"/>
    <circle class="cls-1" cx="984.14" cy="144.7" r="9.16"/>
  </g>
  <g>
    <path class="cls-1" d="m687.51,332.05c-.87,0-1.73,0-2.59-.01-72.78-.48-110.17-21.84-146.33-42.49-35.55-20.31-72.32-41.31-143.75-41.75-.82-.01-1.6-.01-2.38-.01-5.5,0-10.79.12-15.71.35-62.73,2.75-97.14,22.41-130.42,41.42-35.33,20.18-71.86,41.05-141.43,42.43-5.92.1-11.97.09-18.41-.09-32.75-.97-60.24-6.19-86.49-16.43l2.04-5.23c25.64,10,52.53,15.1,84.61,16.05,6.34.18,12.32.18,18.14.08,68.13-1.36,104.03-21.86,138.75-41.69,33.86-19.34,68.87-39.34,132.95-42.15,5.73-.27,12.02-.44,18.42-.34,72.87.46,110.29,21.83,146.47,42.49,35.53,20.29,72.27,41.28,143.6,41.75,6.3.1,12.35-.06,18.13-.32,62.81-2.74,97.25-22.41,130.55-41.44,35.31-20.17,71.82-41.02,141.28-42.43,5.91-.1,12.06-.1,18.4.09,32.79.94,60.32,6.16,86.66,16.43l-2.04,5.23c-25.72-10.02-52.66-15.12-84.78-16.05-6.25-.18-12.33-.18-18.13-.08-68.02,1.38-103.9,21.87-138.6,41.69-33.89,19.35-68.93,39.37-133.09,42.17-5.07.23-10.41.34-15.85.34Z"/>
    <circle class="cls-1" cx="95.71" cy="328.61" r="9.16"/>
    <circle class="cls-1" cx="694.1" cy="328.61" r="9.16"/>
    <circle class="cls-1" cx="385.75" cy="245.81" r="9.16"/>
    <circle class="cls-1" cx="984.14" cy="245.81" r="9.16"/>
  </g>
  <g>
    <path class="cls-1" d="m687.51,433.17c-.87,0-1.73,0-2.59-.01-72.78-.48-110.17-21.84-146.33-42.49-35.55-20.31-72.32-41.31-143.75-41.75-.82-.01-1.6-.01-2.38-.01-5.5,0-10.79.12-15.71.35-62.73,2.75-97.14,22.41-130.42,41.42-35.33,20.18-71.86,41.05-141.43,42.43-5.87.1-12.01.09-18.39-.09-32.76-.97-60.25-6.19-86.51-16.43l2.04-5.23c25.64,10,52.53,15.1,84.63,16.05,6.29.17,12.36.18,18.13.08,68.13-1.36,104.03-21.86,138.75-41.69,33.86-19.34,68.87-39.34,132.95-42.15,5.73-.27,12.02-.45,18.42-.34,72.87.46,110.29,21.83,146.47,42.49,35.53,20.29,72.27,41.28,143.6,41.75,6.3.09,12.35-.06,18.13-.32,62.81-2.74,97.25-22.41,130.55-41.44,35.31-20.17,71.82-41.02,141.28-42.43,5.91-.1,12.06-.09,18.4.09,32.79.94,60.32,6.16,86.66,16.43l-2.04,5.23c-25.72-10.02-52.66-15.12-84.78-16.05-6.25-.18-12.33-.18-18.13-.08-68.02,1.38-103.9,21.87-138.6,41.69-33.89,19.35-68.93,39.37-133.09,42.17-5.07.23-10.41.34-15.85.34Z"/>
    <circle class="cls-1" cx="95.71" cy="429.73" r="9.16"/>
    <circle class="cls-1" cx="694.1" cy="429.73" r="9.16"/>
    <circle class="cls-1" cx="385.75" cy="346.93" r="9.16"/>
    <circle class="cls-1" cx="984.14" cy="346.93" r="9.16"/>
  </g>
  <g>
    <path class="cls-1" d="m687.51,534.28c-.87,0-1.73,0-2.59-.01-72.78-.48-110.17-21.84-146.33-42.49-35.55-20.31-72.32-41.31-143.75-41.75-.82-.01-1.6-.01-2.38-.01-5.5,0-10.79.12-15.71.35-62.73,2.75-97.14,22.41-130.42,41.42-35.33,20.18-71.86,41.05-141.43,42.43-5.89.1-12.05.09-18.39-.09-32.76-.97-60.24-6.19-86.51-16.43l2.04-5.23c25.64,10,52.54,15.1,84.63,16.05,6.25.17,12.34.18,18.13.08,68.13-1.36,104.03-21.86,138.75-41.69,33.86-19.34,68.87-39.34,132.95-42.15,5.73-.27,12.02-.44,18.42-.34,72.87.46,110.29,21.83,146.47,42.49,35.53,20.29,72.27,41.28,143.6,41.75,6.3.09,12.35-.06,18.13-.32,62.81-2.74,97.25-22.41,130.55-41.44,35.31-20.17,71.82-41.02,141.28-42.43,5.9-.1,12.06-.09,18.4.09,32.79.94,60.32,6.16,86.66,16.43l-2.04,5.23c-25.72-10.03-52.66-15.12-84.78-16.05-6.25-.18-12.33-.18-18.13-.08-68.02,1.38-103.9,21.87-138.6,41.69-33.89,19.35-68.93,39.37-133.09,42.17-5.07.23-10.41.34-15.85.34Z"/>
    <circle class="cls-1" cx="95.71" cy="530.84" r="9.16"/>
    <circle class="cls-1" cx="694.1" cy="530.84" r="9.16"/>
    <circle class="cls-1" cx="385.75" cy="448.04" r="9.16"/>
    <circle class="cls-1" cx="984.14" cy="448.04" r="9.16"/>
  </g>
  <g>
    <path class="cls-1" d="m687.51,635.4c-.87,0-1.73,0-2.59-.02-72.77-.48-110.16-21.84-146.32-42.49-35.55-20.31-72.32-41.31-143.75-41.75-.82-.01-1.6-.01-2.38-.01-5.5,0-10.79.12-15.71.35-62.73,2.75-97.14,22.41-130.42,41.42-35.33,20.18-71.86,41.05-141.43,42.43-5.89.1-12.05.09-18.39-.09-32.76-.97-60.24-6.19-86.51-16.43l2.04-5.23c25.64,10,52.54,15.1,84.63,16.05,6.25.18,12.34.18,18.13.08,68.13-1.36,104.03-21.86,138.75-41.69,33.86-19.34,68.87-39.34,132.95-42.15,5.73-.27,12.02-.44,18.42-.34,72.87.45,110.29,21.83,146.47,42.49,35.53,20.29,72.27,41.28,143.6,41.75.86.02,1.68.02,2.52.02,5.36,0,10.61-.11,15.61-.33,62.81-2.74,97.25-22.41,130.55-41.44,35.31-20.17,71.82-41.02,141.28-42.43,5.93-.1,11.96-.09,18.39.09,32.79.94,60.32,6.16,86.66,16.43l-2.04,5.23c-25.72-10.03-52.65-15.12-84.78-16.05-6.34-.18-12.3-.18-18.13-.08-68.02,1.38-103.9,21.87-138.6,41.69-33.89,19.35-68.93,39.37-133.09,42.17-5.07.23-10.41.34-15.85.34Z"/>
    <circle class="cls-1" cx="95.71" cy="631.96" r="9.16"/>
    <circle class="cls-1" cx="694.1" cy="631.96" r="9.16"/>
    <circle class="cls-1" cx="385.75" cy="549.16" r="9.16"/>
    <circle class="cls-1" cx="984.14" cy="549.16" r="9.16"/>
  </g>
  <g>
    <path class="cls-1" d="m687.51,736.51c-.87,0-1.73,0-2.59-.01-72.78-.48-110.17-21.84-146.33-42.49-35.55-20.31-72.32-41.31-143.75-41.75-.82-.02-1.6-.02-2.38-.02-5.5,0-10.79.12-15.71.35-62.73,2.75-97.14,22.41-130.42,41.42-35.33,20.18-71.86,41.05-141.43,42.43-5.92.1-12.13.09-18.39-.09-32.76-.97-60.25-6.19-86.51-16.43l2.04-5.23c25.64,10,52.53,15.1,84.63,16.05,6.17.17,12.31.18,18.13.08,68.13-1.36,104.03-21.86,138.75-41.69,33.86-19.34,68.87-39.34,132.95-42.15,5.73-.27,12.02-.45,18.42-.34,72.87.45,110.28,21.83,146.47,42.49,35.53,20.29,72.27,41.28,143.6,41.75,6.32.1,12.38-.06,18.13-.32,62.81-2.74,97.24-22.41,130.55-41.44,35.31-20.17,71.82-41.02,141.28-42.43,5.9-.1,12.06-.09,18.4.09,32.79.94,60.32,6.16,86.66,16.43l-2.04,5.23c-25.72-10.03-52.65-15.12-84.78-16.05-6.24-.18-12.33-.18-18.13-.08-68.02,1.38-103.9,21.87-138.6,41.69-33.89,19.35-68.93,39.37-133.09,42.17-5.05.22-10.39.34-15.85.34Z"/>
    <circle class="cls-1" cx="95.71" cy="733.07" r="9.16"/>
    <circle class="cls-1" cx="694.1" cy="733.07" r="9.16"/>
    <circle class="cls-1" cx="385.75" cy="650.27" r="9.16"/>
    <circle class="cls-1" cx="984.14" cy="650.27" r="9.16"/>
  </g>
  <g>
    <path class="cls-1" d="m687.51,837.63c-.87,0-1.73,0-2.59-.01-72.78-.48-110.17-21.84-146.33-42.49-35.55-20.31-72.32-41.31-143.75-41.75-.82-.02-1.6-.02-2.38-.02-5.5,0-10.79.12-15.71.35-62.73,2.75-97.14,22.41-130.42,41.42-35.33,20.18-71.86,41.05-141.43,42.43-5.92.1-12.13.09-18.39-.09-32.76-.97-60.25-6.19-86.51-16.43l2.04-5.23c25.64,10,52.53,15.1,84.63,16.05,6.17.17,12.31.19,18.13.08,68.13-1.36,104.03-21.86,138.75-41.69,33.86-19.34,68.87-39.34,132.95-42.15,5.73-.27,12.02-.45,18.42-.34,72.87.45,110.28,21.83,146.47,42.49,35.53,20.29,72.27,41.28,143.6,41.75,6.32.11,12.38-.06,18.13-.32,62.81-2.74,97.24-22.41,130.55-41.44,35.31-20.17,71.82-41.02,141.28-42.43,5.9-.1,12.06-.1,18.4.09,32.79.94,60.32,6.16,86.66,16.43l-2.04,5.23c-25.72-10.03-52.65-15.12-84.78-16.05-6.24-.18-12.33-.18-18.13-.08-68.02,1.38-103.9,21.87-138.6,41.69-33.89,19.35-68.93,39.37-133.09,42.17-5.05.22-10.39.34-15.85.34Z"/>
    <circle class="cls-1" cx="95.71" cy="834.19" r="9.16"/>
    <circle class="cls-1" cx="694.1" cy="834.19" r="9.16"/>
    <circle class="cls-1" cx="385.75" cy="751.39" r="9.16"/>
    <circle class="cls-1" cx="984.14" cy="751.39" r="9.16"/>
  </g>
  <g>
    <path class="cls-1" d="m687.51,938.74c-.87,0-1.73,0-2.59-.01-72.78-.48-110.17-21.84-146.33-42.49-35.55-20.31-72.32-41.31-143.75-41.75-.82-.01-1.6-.01-2.38-.01-5.5,0-10.79.12-15.71.35-62.73,2.75-97.14,22.41-130.42,41.42-35.33,20.18-71.86,41.05-141.43,42.43-5.87.1-12.01.09-18.39-.09-32.76-.97-60.25-6.19-86.51-16.43l2.04-5.23c25.64,10,52.53,15.1,84.63,16.05,6.29.17,12.36.19,18.13.08,68.13-1.36,104.03-21.86,138.75-41.69,33.86-19.34,68.87-39.34,132.95-42.15,5.73-.27,12.02-.44,18.42-.34,72.87.46,110.29,21.83,146.47,42.49,35.53,20.29,72.27,41.28,143.6,41.75,6.3.09,12.35-.06,18.13-.32,62.81-2.74,97.25-22.41,130.55-41.44,35.31-20.17,71.82-41.02,141.28-42.43,5.91-.1,12.06-.1,18.4.09,32.79.94,60.32,6.16,86.66,16.43l-2.04,5.23c-25.72-10.02-52.66-15.12-84.78-16.05-6.25-.18-12.33-.18-18.13-.08-68.02,1.38-103.9,21.87-138.6,41.69-33.89,19.35-68.93,39.37-133.09,42.17-5.07.23-10.41.34-15.85.34Z"/>
    <circle class="cls-1" cx="95.71" cy="935.3" r="9.16"/>
    <circle class="cls-1" cx="694.1" cy="935.3" r="9.16"/>
    <circle class="cls-1" cx="385.75" cy="852.5" r="9.16"/>
    <circle class="cls-1" cx="984.14" cy="852.5" r="9.16"/>
  </g>
  <g>
    <path class="cls-1" d="m687.51,1039.86c-.87,0-1.73,0-2.59-.01-72.78-.48-110.17-21.84-146.33-42.49-35.55-20.31-72.32-41.31-143.75-41.75-.82-.01-1.6-.01-2.38-.01-5.5,0-10.79.12-15.71.35-62.73,2.75-97.14,22.41-130.42,41.42-35.33,20.18-71.86,41.05-141.43,42.43-5.89.1-12.05.09-18.39-.09-32.76-.97-60.24-6.19-86.51-16.43l2.04-5.23c25.64,10,52.54,15.1,84.63,16.05,6.25.18,12.34.19,18.13.08,68.13-1.36,104.03-21.86,138.75-41.69,33.86-19.34,68.87-39.34,132.95-42.15,5.73-.27,12.02-.44,18.42-.34,72.87.46,110.29,21.83,146.47,42.49,35.53,20.29,72.27,41.28,143.6,41.75,6.3.09,12.35-.06,18.13-.32,62.81-2.74,97.25-22.41,130.55-41.44,35.31-20.17,71.82-41.02,141.28-42.43,5.9-.1,12.06-.09,18.4.09,32.79.94,60.32,6.16,86.66,16.43l-2.04,5.23c-25.72-10.03-52.66-15.12-84.78-16.05-6.25-.18-12.33-.19-18.13-.08-68.02,1.38-103.9,21.87-138.6,41.69-33.89,19.35-68.93,39.37-133.09,42.17-5.07.23-10.41.34-15.85.34Z"/>
    <circle class="cls-1" cx="95.71" cy="1036.42" r="9.16"/>
    <circle class="cls-1" cx="694.1" cy="1036.42" r="9.16"/>
    <circle class="cls-1" cx="385.75" cy="953.62" r="9.16"/>
    <circle class="cls-1" cx="984.14" cy="953.62" r="9.16"/>
  </g>
</svg>