<svg width="263" height="168" viewBox="0 0 263 168" fill="none" xmlns="http://www.w3.org/2000/svg">
<path d="M225.299 99.0784C222.559 96.3384 218.119 96.3384 215.359 99.0784C212.599 101.818 212.619 106.259 215.359 109.019L250.799 144.458C252.179 145.838 253.959 146.519 255.759 146.519C257.559 146.519 259.359 145.838 260.719 144.458C263.459 141.718 263.459 137.279 260.719 134.519L225.279 99.0784H225.299Z" fill="#5F65A5"/>
<path d="M37.32 57.9609H0V167.201H37.32V57.9609Z" fill="#5F65A5"/>
<path d="M97.9607 24.6016H60.6406V166.102H97.9607V24.6016Z" fill="#5F65A5"/>
<path d="M121.26 94.6797V166.12H158.58V114.78C143.86 112.52 130.84 105.22 121.26 94.6797Z" fill="#5F65A5"/>
<path d="M168.321 104.04C197.051 104.04 220.341 80.7499 220.341 52.02C220.341 23.2902 197.051 0 168.321 0C139.591 0 116.301 23.2902 116.301 52.02C116.301 80.7499 139.591 104.04 168.321 104.04Z" fill="#5F65A5"/>
</svg>
