<svg width="314" height="271" viewBox="0 0 314 271" fill="none" xmlns="http://www.w3.org/2000/svg">
<path d="M118.801 111.617H27.4805V202.937H118.801V111.617ZM87.2005 152.277L73.1605 142.237L59.1205 152.277V117.157H87.2205V152.277H87.2005Z" fill="#5F65A5"/>
<path d="M125.82 202.937H217.14V111.617H125.82V202.937ZM157.42 117.177H185.52V152.297L171.48 142.257L157.44 152.297V117.177H157.42Z" fill="#5F65A5"/>
<path d="M167.961 13.2773H76.6406V104.597H167.961V13.2773ZM136.361 53.9373L122.321 43.8973L108.281 53.9373V18.8173H136.381V53.9373H136.361Z" fill="#5F65A5"/>
<path d="M306.52 0.0200195H288.16C275.52 0.0200195 264.8 9.48002 263.22 22.02L237.36 228.96H7.02002C3.14002 228.96 0 232.1 0 235.98C0 239.86 3.14002 243 7.02002 243H45.68C43.84 245.8 42.7 249.12 42.7 252.72C42.7 262.66 50.76 270.72 60.7 270.72C70.64 270.72 78.7 262.66 78.7 252.72C78.7 249.1 77.58 245.8 75.72 243H175.2C173.36 245.8 172.22 249.12 172.22 252.72C172.22 262.66 180.28 270.72 190.22 270.72C200.16 270.72 208.22 262.66 208.22 252.72C208.22 249.1 207.1 245.8 205.24 243H249.72L277.12 23.74C277.82 18.22 282.54 14.04 288.12 14.04H306.48C310.36 14.04 313.5 10.9 313.5 7.02002C313.5 3.14002 310.36 0 306.48 0L306.52 0.0200195Z" fill="#5F65A5"/>
</svg>
