<svg width="176" height="253" viewBox="0 0 176 253" fill="none" xmlns="http://www.w3.org/2000/svg">
<path d="M87.94 131.48C55.34 131.48 25.16 141.68 0.280029 158.98C0.160029 160.8 0 162.62 0 164.46C0 213.02 39.36 252.4 87.94 252.4C136.52 252.4 175.88 213.04 175.88 164.46C175.88 162.6 175.72 160.8 175.6 158.98C150.72 141.68 120.54 131.48 87.94 131.48Z" fill="#5F65A5"/>
<path d="M119.578 92.9985L130.418 82.1586C131.358 78.5986 131.898 74.8786 131.898 71.0186C131.898 46.7386 112.218 27.0586 87.9385 27.0586C63.6585 27.0586 43.9785 46.7386 43.9785 71.0186C43.9785 83.1386 48.8785 94.1186 56.8185 102.059C59.5385 96.6986 65.0585 92.9985 71.4585 92.9985H119.599H119.578Z" fill="#5F65A5"/>
<path d="M21.9799 92.9999H29.9199C33.7999 92.9999 36.9399 89.86 36.9399 85.98V56.06C36.9399 53.1 35.0999 50.6 32.5199 49.56C39.3799 23.54 60.6199 7 87.9199 7C115.22 7 136.46 23.54 143.32 49.56C140.74 50.6 138.9 53.1 138.9 56.06V85.98C138.9 87.18 139.28 88.2401 139.8 89.2401L124.08 104.72H71.3999C68.7999 104.72 66.62 106.82 66.62 109.5C66.62 112.18 68.7999 114.28 71.3999 114.28H128.36L149.62 93.02H153.86C157.74 93.02 160.88 89.8799 160.88 85.9999V56.08C160.88 52.2 157.74 49.06 153.86 49.06H150.38C143.08 19.54 118.52 0 87.8999 0C57.2799 0 32.7199 19.54 25.4199 49.06H21.9399C18.0599 49.06 14.9199 52.2 14.9199 56.08V85.9999C14.9199 89.8799 18.0599 93.02 21.9399 93.02L21.9799 92.9999Z" fill="#5F65A5"/>
</svg>
